<svg id="Layer_1" data-name="Layer 1" xmlns="http://www.w3.org/2000/svg" viewBox="0 0 354.35 135.27"><defs><style>.cls-1{fill:#f6444b;}.cls-2{fill:#437b86;}.cls-3{fill:#6fc5a4;}.cls-4{fill:#f7d443;}.cls-5{font-size:36px;fill:#5b5b5a;font-family:Avenir Next;font-weight:700;}.cls-6{fill:#4d4d4d;letter-spacing:6px;}.cls-7{letter-spacing:5px;}.cls-8{fill:none;stroke:#1f978a;stroke-miterlimit:10;stroke-width:2px;}</style></defs><title>ecrcentral-logo-2</title><path class="cls-1" d="M86.61,18c21.87,5,39.09,18.48,45.37,35.44A66.05,66.05,0,0,0,71.3,0c5.9,2.59,11.18,9,15.31,18"/><path class="cls-2" d="M47.69,17.66C51.34,8.77,56,2.52,61.3,0A65.73,65.73,0,0,0,0,56.59C5.31,37.73,23.87,22.68,47.69,17.66"/><path class="cls-2" d="M18.36,70.59C7.83,69.92,2.76,69.18.29,68.45c0,0.2,0,.41,0,0.61C0.77,90.29,20.17,108.19,46.6,114c-4.16-11.18-6.78-26-7.09-42.5-7.8-.21-15-0.52-21.15-0.91"/><path class="cls-3" d="M47.61,117.68C24.28,113,6,99.13,0,81.64a66.06,66.06,0,0,0,61.3,53.63c-5.31-2.51-10-8.74-13.7-17.59"/><path class="cls-1" d="M51.41,118.17c4,9.11,9.09,14.94,14.7,15.9,6.39-1,12.2-6.92,16.72-16.2a89.34,89.34,0,0,1-31.42.3"/><path class="cls-2" d="M95.69,68c21-.65,33.75-1.94,36.38-3-2-20.2-20-37-44.31-43.19,4.93,12,7.94,27.85,7.94,45.28,0,0.31,0,.62,0,0.93"/><path class="cls-3" d="M82.86,17.46C78.34,8.15,72.52,2.17,66.11,1.2,60.49,2.16,55.38,8,51.39,17.15a86.36,86.36,0,0,1,31.47.31"/><path class="cls-1" d="M39.48,67.07c0-17.82,2.67-33.81,7.09-45.72C21.35,27.11,2.54,44.28.45,65c2.74,1.12,16.47,2.48,39,3.09,0-.34,0-0.67,0-1"/><path class="cls-4" d="M92.27,68.07c0-.33,0-0.66,0-1,0-17.9-3.15-34.13-8.22-45.89a84.22,84.22,0,0,0-33.71-.4C45.76,32.57,42.9,49,42.9,67.07c0,0.36,0,.71,0,1.06q10.52,0.26,23.35.27c9.65,0,18.34-.13,26-0.34"/><path class="cls-2" d="M86.58,117.32c-4.13,8.95-9.39,15.32-15.27,17.9a66.06,66.06,0,0,0,60.09-50.66c-6.74,15.69-23.59,28-44.82,32.76"/><path class="cls-4" d="M0.27,93.27v42H42.37s-31.31-8.88-42.11-42"/><text class="cls-5" transform="translate(147.73 37.33)">Early <tspan x="91.98" y="0">C</tspan><tspan x="116.39" y="0">a</tspan><tspan x="136.19" y="0">r</tspan><tspan x="148.64" y="0">eer</tspan><tspan class="cls-6"><tspan x="0" y="86.4">CENTRA</tspan><tspan class="cls-7" x="184.43" y="86.4">L</tspan></tspan></text><text class="cls-5" transform="translate(147.73 76.15)">R<tspan x="22.61" y="0">es</tspan><tspan x="60.05" y="0">e</tspan><tspan x="80.89" y="0">a</tspan><tspan x="101.09" y="0">r</tspan><tspan x="113.94" y="0">chers</tspan></text><line class="cls-8" x1="150.24" y1="87.82" x2="350.44" y2="87.82"/></svg>