<?xml version="1.0" encoding="utf-8"?>
<!-- Generator: Adobe Illustrator 19.2.0, SVG Export Plug-In . SVG Version: 6.00 Build 0)  -->
<svg version="1.1" id="Layer_1" xmlns="http://www.w3.org/2000/svg" xmlns:xlink="http://www.w3.org/1999/xlink" x="0px" y="0px"
	 viewBox="0 0 176 126" style="enable-background:new 0 0 176 126;" xml:space="preserve">
<style type="text/css">
	.st0{fill:#888888;}
	.st1{fill:#FFFFFF;stroke:#BEC3C5;stroke-width:2;}
	.st2{fill:#7CB13F;}
	.st3{fill:#D71D62;}
	.st4{fill:#336A2D;}
	.st5{fill:#861450;}
	.st6{fill:#2994D2;}
	.st7{fill:#08589B;}
	.st8{fill:#666B6E;}
</style>
<title>Artboard</title>
<desc>Created with Sketch.</desc>
<g id="Artboard">
	<g id="Group-Copy">
		<g id="Group-3">
			<g id="Group">
				<path id="Powered-by" class="st0" d="M16.6,9.9c0,2.3-0.8,4.1-2.4,5.4s-3.8,1.9-6.7,1.9H4.9V26H2V3.2h6
					C13.8,3.2,16.6,5.4,16.6,9.9z M4.9,14.6h2.3c2.3,0,3.9-0.4,4.9-1.1s1.5-1.9,1.5-3.5c0-1.5-0.5-2.6-1.4-3.3S9.8,5.6,7.8,5.6H4.9
					V14.6z M35.9,17.4c0,2.8-0.7,5-2.1,6.6s-3.4,2.4-5.9,2.4c-1.6,0-2.9-0.4-4.1-1.1s-2.1-1.8-2.8-3.1s-1-2.9-1-4.7
					c0-2.8,0.7-5,2.1-6.5s3.4-2.3,5.9-2.3c2.4,0,4.3,0.8,5.8,2.4S35.9,14.7,35.9,17.4z M22.9,17.4c0,2.2,0.4,3.8,1.3,4.9
					s2.1,1.7,3.8,1.7c1.6,0,2.9-0.6,3.7-1.7s1.3-2.8,1.3-4.9s-0.4-3.8-1.3-4.9s-2.1-1.6-3.8-1.6C24.6,10.9,22.9,13.1,22.9,17.4z
					 M54,26l-2.9-9.7c-0.3-0.8-0.7-2.3-1.2-4.5h-0.1c-0.4,2-0.8,3.6-1.2,4.6L45.5,26h-3.2L37.6,8.8h2.9c1.1,4.2,1.9,7.4,2.5,9.6
					s0.9,3.7,1,4.7h0.1l0.2-1c0.3-1.5,0.6-2.7,0.9-3.6l3-9.7h3.1l3,9.7c0.1,0.4,0.2,0.8,0.3,1.2s0.2,0.8,0.3,1.2s0.2,0.8,0.3,1.2
					s0.1,0.7,0.2,1h0.1c0.1-0.8,0.5-2.5,1.1-5.1l2.4-9.2h2.9L57.3,26H54z M72.5,26.3c-2.6,0-4.6-0.8-6.1-2.3s-2.2-3.7-2.2-6.4
					c0-2.8,0.7-4.9,2-6.6s3.2-2.4,5.5-2.4c2.2,0,3.9,0.7,5.2,2.1s1.9,3.3,1.9,5.6V18H67.1c0.1,1.9,0.5,3.4,1.5,4.4s2.3,1.5,4,1.5
					c0.9,0,1.8-0.1,2.6-0.2s1.8-0.5,2.9-0.9v2.5c-0.9,0.4-1.8,0.7-2.7,0.9S73.6,26.3,72.5,26.3z M71.8,10.8c-1.3,0-2.4,0.4-3.2,1.3
					s-1.2,2.1-1.4,3.6h8.7c0-1.6-0.4-2.8-1.1-3.7S73.1,10.8,71.8,10.8z M91.2,8.5c0.8,0,1.4,0.1,2,0.2l-0.3,2.6
					c-0.6-0.1-1.3-0.2-1.9-0.2c-0.9,0-1.7,0.2-2.5,0.8s-1.4,1.2-1.8,2.1S86,15.8,86,16.8V26h-2.8V8.8h2.3l0.3,3.1H86
					c0.7-1.1,1.4-2,2.3-2.6S90.2,8.5,91.2,8.5z M103.4,26.3c-2.6,0-4.6-0.8-6.1-2.3s-2.2-3.7-2.2-6.4c0-2.8,0.7-4.9,2-6.6
					s3.2-2.4,5.5-2.4c2.2,0,3.9,0.7,5.2,2.1s1.9,3.3,1.9,5.6V18H98.1c0.1,1.9,0.5,3.4,1.5,4.4s2.3,1.5,4,1.5c0.9,0,1.8-0.1,2.6-0.2
					s1.8-0.5,2.9-0.9v2.5c-0.9,0.4-1.8,0.7-2.7,0.9S104.5,26.3,103.4,26.3z M102.7,10.8c-1.3,0-2.4,0.4-3.2,1.3s-1.2,2.1-1.4,3.6
					h8.7c0-1.6-0.4-2.8-1.1-3.7S104,10.8,102.7,10.8z M120.2,26.3c-2.2,0-4-0.8-5.2-2.3s-1.8-3.7-1.8-6.5c0-2.8,0.6-5,1.9-6.6
					s3-2.4,5.2-2.4c2.3,0,4.1,0.8,5.3,2.5h0.2c0-0.2-0.1-0.6-0.1-1.3s-0.1-1.1-0.1-1.3V1.7h2.8V26h-2.3l-0.4-2.3h-0.1
					C124.4,25.4,122.6,26.3,120.2,26.3z M120.7,24c1.7,0,3-0.5,3.7-1.4s1.2-2.5,1.2-4.6v-0.5c0-2.4-0.4-4.1-1.2-5.1s-2-1.5-3.8-1.5
					c-1.4,0-2.6,0.6-3.4,1.7s-1.2,2.8-1.2,4.9c0,2.1,0.4,3.7,1.2,4.8S119.2,24,120.7,24z M150.3,8.6c2.3,0,4,0.8,5.2,2.3
					s1.8,3.7,1.8,6.5c0,2.8-0.6,5-1.9,6.6s-3,2.3-5.2,2.3c-1.2,0-2.2-0.2-3.1-0.6s-1.6-1-2.2-1.9h-0.2c-0.3,1.3-0.5,2-0.6,2.2h-2
					V1.7h2.8v5.9c0,1.2-0.1,2.4-0.2,3.5h0.2C146.1,9.4,147.9,8.6,150.3,8.6z M149.8,10.9c-1.7,0-3,0.5-3.7,1.5s-1.1,2.6-1.1,5v0.1
					c0,2.3,0.4,4,1.1,5s2,1.5,3.8,1.5c1.5,0,2.7-0.6,3.4-1.7s1.1-2.8,1.1-4.9c0-2.2-0.4-3.8-1.1-4.9S151.4,10.9,149.8,10.9z
					 M158.8,8.8h3l3.7,9.8c0.8,2.1,1.3,3.7,1.4,4.7h0.1c0.1-0.4,0.3-1.1,0.6-2.2s0.6-1.9,0.8-2.5l3.5-9.7h3l-7.4,19.5
					c-0.7,1.9-1.6,3.3-2.6,4.1s-2.2,1.2-3.7,1.2c-0.8,0-1.6-0.1-2.3-0.3v-2.2c0.5,0.1,1.1,0.2,1.9,0.2c0.9,0,1.7-0.2,2.3-0.7
					s1.1-1.3,1.5-2.3l0.9-2.3L158.8,8.8z"/>
			</g>
		</g>
	</g>
</g>
<g id="elife-logo-xs">
	<g id="logo" transform="translate(4.000000, 4.000000)">
		<g id="symbol">
			<circle id="Oval" class="st1" cx="29.9" cy="88.1" r="26.4"/>
			<path id="Fill-2" class="st2" d="M25.9,84.2c1.4,1.4,3.7,1.4,5.1,0l13.3-13.3c-1.9-1.6-4.1-2.9-6.4-3.8l-12,12
				C24.5,80.5,24.5,82.8,25.9,84.2"/>
			<path id="Fill-4" class="st3" d="M33.6,91.9c1.4,1.4,1.4,3.7,0,5.1l-10.3,10.3c-1.4,1.4-3.7,1.4-5.1,0c-1.4-1.4-1.4-3.7,0-5.1
				l10.3-10.3C29.9,90.5,32.2,90.5,33.6,91.9"/>
			<path id="Fill-6" class="st4" d="M23.4,86.8c1.4,1.4,1.4,3.7,0,5.1c-1.4,1.4-3.7,1.4-5.1,0c-1.4-1.4-1.4-3.7,0-5.1
				S22,85.4,23.4,86.8"/>
			<path id="Fill-8" class="st4" d="M36.2,73.9c1.4,1.4,1.4,3.7,0,5.1c-1.4,1.4-3.7,1.4-5.1,0c-1.4-1.4-1.4-3.7,0-5.1
				C32.5,72.5,34.8,72.5,36.2,73.9"/>
			<path id="Fill-10" class="st5" d="M25.9,99.6c1.4,1.4,1.4,3.7,0,5.1c-1.4,1.4-3.7,1.4-5.1,0c-1.4-1.4-1.4-3.7,0-5.1
				C22.2,98.2,24.5,98.2,25.9,99.6"/>
			<path id="Fill-12" class="st5" d="M49,76.5c1.4,1.4,1.4,3.7,0,5.1c-1.4,1.4-3.7,1.4-5.1,0c-1.4-1.4-1.4-3.7,0-5.1
				C45.3,75.1,47.6,75.1,49,76.5"/>
			<path id="Fill-14" class="st3" d="M41.3,84.2c1.4,1.4,1.4,3.7,0,5.1c-1.4,1.4-3.7,1.4-5.1,0c-1.4-1.4-1.4-3.7,0-5.1
				C37.6,82.8,39.9,82.8,41.3,84.2"/>
			<path id="Fill-16" class="st6" d="M43.9,97c1.4,1.4,1.4,3.7,0,5.1s-3.7,1.4-5.1,0c-1.4-1.4-1.4-3.7,0-5.1
				C40.2,95.6,42.5,95.6,43.9,97"/>
			<path id="Fill-18" class="st7" d="M23.4,71.4c1.4,1.4,1.4,3.7,0,5.1c-1.4,1.4-3.7,1.4-5.1,0s-1.4-3.7,0-5.1S22,70,23.4,71.4"/>
			<path id="Fill-20" class="st5" d="M15.7,94.5c-1.4-1.4-3.7-1.4-5.1,0l-1.7,1.7c0.9,2.4,2.2,4.5,3.8,6.4l3-3
				C17.1,98.2,17.1,95.9,15.7,94.5"/>
			<path id="Fill-22" class="st3" d="M25.9,68.8c1.4,1.4,3.7,1.4,5.1,0l2.6-2.6c0.1-0.1,0.2-0.2,0.2-0.3c-1.3-0.2-2.7-0.4-4.1-0.4
				c-1.7,0-3.3,0.2-4.9,0.5C24.9,67.1,25.2,68.1,25.9,68.8"/>
			<path id="Fill-24" class="st6" d="M15.7,84.2c1.4-1.4,1.4-3.7,0-5.1s-3.7-1.4-5.1,0l-2.2,2.2c-0.7,2.1-1,4.4-1,6.8
				c0,1.2,0.1,2.4,0.3,3.5c0.6-0.2,1.2-0.5,1.7-0.9L15.7,84.2z"/>
			<path id="Fill-26" class="st7" d="M46.5,89.3c-1.4,1.4-1.4,3.7,0,5.1c1.3,1.3,3.4,1.4,4.8,0.3c0.7-2.1,1-4.4,1-6.7
				c0-1.4-0.1-2.8-0.4-4.1c-0.1,0.1-0.2,0.2-0.3,0.3L46.5,89.3z"/>
			<path id="Fill-28" class="st2" d="M36.2,104.7c-1.4-1.4-3.7-1.4-5.1,0l-5.1,5.1c-0.1,0.1-0.2,0.2-0.3,0.3
				c1.3,0.2,2.7,0.4,4.1,0.4c2.3,0,4.6-0.4,6.7-1C37.6,108.1,37.5,106,36.2,104.7"/>
		</g>
		<g id="letters" transform="translate(47.500000, 6.371800)">
			<path id="Fill-32" class="st8" d="M28.6,77c-1.5,0-2.6,0.5-3.4,1.4c-0.8,0.9-1.3,2.2-1.4,4h9.7c0-1.7-0.5-3-1.3-4
				C31.2,77.5,30,77,28.6,77 M29.5,98.4c-4.1,0-7.3-1.1-9.6-3.4c-2.3-2.3-3.4-5.4-3.4-9.6c0-4.2,1.1-7.5,3.2-9.8
				c2.1-2.3,5.1-3.5,8.8-3.5c3.6,0,6.4,1,8.4,3.1c2,2,3,4.9,3,8.5V87H23.5c0.1,2,0.7,3.5,1.7,4.6c1.1,1.1,2.6,1.7,4.6,1.7
				c1.5,0,3-0.2,4.3-0.5c1.4-0.3,2.8-0.8,4.3-1.5v5.3c-1.2,0.6-2.5,1.1-3.9,1.3C33.2,98.2,31.5,98.4,29.5,98.4"/>
			<polygon id="Fill-34" class="st8" points="43.6,97.9 43.6,65.6 50,65.6 50,92.7 62.9,92.7 62.9,97.9 			"/>
			<path id="Fill-36" class="st8" d="M66.8,97.9h6.4V73.4h-6.4V97.9z M66.8,67.6c0-2.1,1.1-3.2,3.2-3.2c2.1,0,3.2,1.1,3.2,3.2
				c0,1-0.3,1.8-0.8,2.4c-0.5,0.6-1.3,0.9-2.4,0.9C67.9,70.8,66.8,69.7,66.8,67.6L66.8,67.6z"/>
			<path id="Fill-38" class="st8" d="M93.9,78.5h-6.4v19.3H81V78.5h-3.9v-3.9l3.9-1.3v-1.3c0-2.9,0.8-5.7,2.2-7c1.4-1.3,3.7-2,6.8-2
				c2.4,0,4.5,0.4,6.4,1.1l-1.9,4.7c-1.4-0.4-3.3-0.7-4.5-0.7c-1,0-1.7,0.3-2.1,0.9c-0.4,0.6-0.4,2.1-0.4,3v1.3h6.4V78.5z"/>
			<path id="Fill-39" class="st8" d="M108.5,77c-1.5,0-2.6,0.5-3.4,1.4c-0.8,0.9-1.3,2.2-1.4,4h9.7c0-1.7-0.5-3-1.3-4
				C111.1,77.5,109.9,77,108.5,77 M109.5,98.4c-4.1,0-7.3-1.1-9.6-3.4c-2.3-2.3-3.4-5.4-3.4-9.6c0-4.2,1.1-7.5,3.2-9.8
				c2.1-2.3,5.1-3.5,8.8-3.5c3.6,0,6.4,1,8.4,3.1c2,2,3,4.9,3,8.5V87h-16.3c0.1,2,0.7,3.5,1.7,4.6c1.1,1.1,2.6,1.7,4.6,1.7
				c1.5,0,3-0.2,4.3-0.5c1.4-0.3,2.8-0.8,4.3-1.5v5.3c-1.2,0.6-2.5,1.1-3.9,1.3C113.1,98.2,111.4,98.4,109.5,98.4"/>
		</g>
	</g>
</g>
</svg>
