<?xml version="1.0" encoding="UTF-8" standalone="no"?>
<svg
   viewBox="0 0 32 32"
   version="1.1"
   id="svg1"
   sodipodi:docname="favicon.svg"
   inkscape:version="1.4.3 (0d15f75, 2025-12-25)"
   xmlns:inkscape="http://www.inkscape.org/namespaces/inkscape"
   xmlns:sodipodi="http://sodipodi.sourceforge.net/DTD/sodipodi-0.dtd"
   xmlns="http://www.w3.org/2000/svg"
   xmlns:svg="http://www.w3.org/2000/svg">
  <defs
     id="defs1" />
  <sodipodi:namedview
     id="namedview1"
     pagecolor="#ffffff"
     bordercolor="#000000"
     borderopacity="0.25"
     inkscape:showpageshadow="2"
     inkscape:pageopacity="0.0"
     inkscape:pagecheckerboard="0"
     inkscape:deskcolor="#d1d1d1"
     inkscape:zoom="15.060081"
     inkscape:cx="18.426196"
     inkscape:cy="15.106161"
     inkscape:window-width="1340"
     inkscape:window-height="848"
     inkscape:window-x="0"
     inkscape:window-y="33"
     inkscape:window-maximized="0"
     inkscape:current-layer="svg1" />
  <path
     class="cls-1"
     d="m 20.769917,4.6447295 c 4.893712,1.1426407 8.746923,4.223201 10.15216,8.0990375 A 14.779593,15.094285 0 0 0 17.335145,0.53122244 C 18.65535,1.1231114 19.836821,2.5879769 20.760968,4.6447295"
     id="path1"
     style="fill:#f6444b;stroke-width:0.226134" />
  <path
     class="cls-2"
     d="m 12.058796,4.5670296 c 0.816736,-2.0316152 1.86619,-3.459916 3.03871,-4.03580716 A 14.707989,15.021154 0 0 0 1.3875049,13.463631 C 2.5667396,9.1535905 6.730983,5.7142412 12.058796,4.5670296"
     id="path2"
     style="fill:#437b86;stroke-width:0.226134" />
  <path
     class="cls-2"
     d="M 5.4958071,16.663025 C 3.1418118,16.50991 2.0050916,16.3408 1.4479217,16.173975 c 0,0.04571 0,0.09371 0,0.139406 0.1141107,4.851652 4.4551339,8.942306 10.3692093,10.270054 -0.930858,-2.554943 -1.517118,-5.941733 -1.586485,-9.712447 -1.745357,-0.04799 -3.3564559,-0.118833 -4.7326029,-0.207959"
     id="path3"
     style="fill:#437b86;stroke-width:0.226134" />
  <path
     class="cls-3"
     d="M 12.040896,27.424414 C 6.8182498,26.354902 2.7211373,23.185218 1.3875049,19.188259 A 14.78183,15.096569 0 0 0 15.097506,31.444225 C 13.909322,30.870619 12.85987,29.44689 12.031943,27.424414"
     id="path4"
     style="fill:#6fc5a4;stroke-width:0.226134" />
  <path
     class="cls-1"
     d="m 12.893435,27.536393 c 0.895053,2.081893 2.034012,3.414209 3.289326,3.633598 1.429851,-0.228527 2.729916,-1.581413 3.741329,-3.702156 a 19.99105,20.416703 0 0 1 -7.030655,0.06856"
     id="path5"
     style="fill:#f6444b;stroke-width:0.226134" />
  <path
     class="cls-2"
     d="M 22.801691,16.071137 C 27.50073,15.922586 30.353717,15.627791 30.942215,15.385552 30.494689,10.769284 26.466941,6.9300111 21.027247,5.5154226 22.1304,8.25776 22.803929,11.87993 22.803929,15.863175 c 0,0.07085 0,0.141688 0,0.212533"
     id="path6"
     style="fill:#437b86;stroke-width:0.226134" />
  <path
     class="cls-3"
     d="M 19.930802,4.5213254 C 18.919391,2.393727 17.61485,1.0271303 16.182761,0.80545764 14.925208,1.0248449 13.781776,2.359448 12.888959,4.4504817 a 19.324234,19.73569 0 0 1 7.041843,0.070843"
     id="path7"
     style="fill:#6fc5a4;stroke-width:0.226134" />
  <path
     class="cls-1"
     d="m 10.221695,15.858607 c 0,-4.072373 0.597449,-7.7265385 1.586486,-10.4483072 -5.6433207,1.3163218 -9.852316,5.2401512 -10.319983,9.9752522 0.6131126,0.255952 3.6853876,0.566751 8.726786,0.706153 0,-0.07771 0,-0.153116 0,-0.22853"
     id="path8"
     style="fill:#f6444b;stroke-width:0.226134" />
  <path
     class="cls-4"
     d="m 22.034181,16.087133 c 0,-0.07541 0,-0.150833 0,-0.228526 0,-4.090656 -0.704855,-7.7996675 -1.839336,-10.4871572 A 18.84538,19.24664 0 0 0 12.65177,5.280034 c -1.024839,2.694348 -1.662563,6.449063 -1.662563,10.578569 0,0.08226 0,0.16226 0,0.242239 q 2.353992,0.05941 5.224882,0.06169 c 2.15932,0 4.103826,-0.02969 5.817856,-0.07771"
     id="path9"
     style="fill:#f7d443;stroke-width:0.226134" />
  <path
     class="cls-2"
     d="m 20.760968,27.342146 c -0.924147,2.045325 -2.101144,3.501049 -3.416873,4.090653 A 14.78183,15.096569 0 0 0 30.790056,19.855563 c -1.508167,3.585607 -5.278586,6.398788 -10.029088,7.486583"
     id="path10"
     style="fill:#437b86;stroke-width:0.226134" />
  <path
     class="cls-4"
     d="m 1.4479217,21.846043 v 9.598182 h 9.4226893 c 0,0 -7.0082795,-2.040757 -9.4226893,-9.598182"
     id="path11"
     style="fill:#f7d443;stroke-width:0.226134" />
</svg>
