<?xml version="1.0" standalone="no"?>
<!DOCTYPE svg PUBLIC "-//W3C//DTD SVG 20010904//EN"
 "http://www.w3.org/TR/2001/REC-SVG-20010904/DTD/svg10.dtd">
<svg version="1.0" xmlns="http://www.w3.org/2000/svg"
 width="625.000000pt" height="625.000000pt" viewBox="0 0 625.000000 625.000000"
 preserveAspectRatio="xMidYMid meet">
<metadata>
Created by potrace 1.11, written by Peter Selinger 2001-2013
</metadata>
<g transform="translate(0.000000,625.000000) scale(0.100000,-0.100000)"
fill="#000000" stroke="none">
<path d="M2695 6143 c-55 -7 -122 -17 -150 -23 -27 -6 -65 -13 -84 -16 -57 -9
-281 -73 -371 -105 -508 -184 -971 -511 -1292 -914 -44 -55 -88 -109 -97 -120
-9 -11 -42 -59 -73 -106 -187 -284 -331 -606 -407 -914 -22 -89 -61 -279 -60
-292 0 -4 16 35 35 87 278 764 1019 1363 1982 1601 72 18 132 36 132 41 0 18
113 244 166 330 120 197 272 360 399 427 l40 21 -60 -2 c-33 -1 -105 -8 -160
-15z"/>
<path d="M3425 6128 c126 -70 291 -220 374 -342 8 -12 18 -23 21 -26 8 -7 70
-100 70 -105 0 -3 15 -29 34 -58 19 -30 56 -96 81 -148 l47 -95 107 -27 c723
-184 1365 -610 1716 -1138 73 -111 168 -288 196 -364 29 -81 22 -26 -15 117
-149 581 -460 1085 -919 1491 -308 272 -709 493 -1113 613 -133 39 -194 53
-319 74 -33 5 -71 12 -85 14 -49 9 -116 16 -185 21 l-70 6 60 -33z"/>
<path d="M3056 6089 c-109 -38 -228 -129 -322 -245 -21 -27 -41 -51 -44 -54
-32 -30 -220 -366 -220 -393 0 -2 35 2 78 9 301 47 650 58 950 29 100 -10 167
-17 187 -21 11 -3 36 -7 55 -9 46 -7 90 -14 118 -19 30 -6 28 4 -18 87 -189
336 -394 543 -605 610 -86 27 -116 28 -179 6z"/>
<path d="M2879 5296 c-2 -2 -42 -7 -89 -11 -47 -3 -128 -13 -180 -21 -52 -8
-113 -17 -135 -20 -22 -3 -45 -11 -51 -17 -24 -25 -126 -350 -170 -542 -31
-134 -72 -336 -79 -390 -2 -22 -7 -51 -9 -65 -7 -32 -20 -134 -30 -220 -22
-197 -24 -219 -41 -495 -4 -59 -8 -324 -6 -377 l1 -26 123 -3 c192 -4 1754 -3
1936 2 l164 4 -7 230 c-3 127 -8 246 -10 265 -3 19 -7 73 -11 120 -6 87 -13
156 -20 200 -2 14 -7 52 -11 85 -6 58 -8 71 -19 125 -2 14 -7 43 -10 65 -3 23
-7 52 -10 65 -3 14 -7 39 -10 55 -24 129 -81 360 -122 495 -35 119 -130 380
-141 392 -11 12 -241 51 -372 63 -36 4 -76 9 -90 12 -28 6 -596 14 -601 9z"/>
<path d="M2210 5200 c-14 -4 -70 -20 -125 -35 -677 -182 -1264 -581 -1606
-1090 -148 -219 -266 -528 -294 -766 l-7 -57 68 -15 c38 -8 94 -18 124 -22 30
-4 62 -9 70 -10 8 -2 49 -6 90 -10 41 -4 83 -9 92 -10 9 -2 59 -6 110 -10 51
-4 111 -8 133 -9 101 -8 266 -19 320 -21 33 -2 130 -6 215 -10 85 -4 184 -8
220 -10 36 -1 121 -4 190 -5 l125 -3 1 114 c2 125 13 405 19 472 2 23 6 78 10
122 4 44 8 94 10 110 2 17 7 57 10 90 4 32 8 66 10 75 1 8 6 42 10 75 3 32 8
62 10 65 2 3 6 28 9 55 4 42 23 146 50 278 3 15 8 39 11 55 15 72 80 309 117
422 58 174 57 166 8 150z"/>
<path d="M4110 5171 c0 -9 4 -21 9 -26 7 -9 75 -192 87 -235 2 -8 24 -81 48
-162 24 -82 42 -148 40 -148 -2 0 0 -10 5 -23 5 -12 20 -78 34 -147 29 -142
36 -176 56 -310 23 -150 27 -183 36 -275 4 -38 8 -84 10 -101 11 -99 23 -348
24 -507 l1 -119 163 6 c314 13 373 15 477 21 58 3 128 7 155 10 28 2 93 7 145
10 52 3 111 8 130 10 19 2 71 7 115 10 44 3 91 8 105 10 14 2 50 6 80 9 30 3
64 7 75 10 11 2 40 7 65 11 25 4 64 11 88 17 l43 11 -6 41 c-58 416 -240 776
-560 1104 -280 289 -654 526 -1065 677 -41 15 -84 31 -95 36 -21 9 -178 55
-232 69 -28 7 -33 5 -33 -9z"/>
<path d="M174 3009 c3 -52 8 -107 11 -124 15 -85 38 -193 47 -215 5 -14 11
-32 13 -41 10 -48 92 -237 141 -324 234 -416 614 -748 1140 -999 53 -25 99
-46 103 -46 4 0 25 -8 47 -19 91 -44 409 -145 524 -167 14 -2 31 -7 38 -9 18
-6 16 -1 -34 151 -42 130 -102 348 -120 439 -4 22 -8 45 -10 50 -1 6 -7 35
-13 65 -6 30 -13 66 -16 80 -3 14 -12 66 -20 115 -7 50 -17 108 -20 130 -4 22
-8 54 -9 70 -2 17 -6 55 -10 85 -3 30 -8 75 -11 100 -3 25 -7 68 -10 95 -8 72
-13 168 -21 350 -3 88 -8 162 -11 165 -2 2 -32 5 -66 6 -239 8 -424 15 -497
19 -47 2 -137 7 -200 10 -63 3 -140 8 -170 10 -30 2 -98 7 -150 10 -52 3 -111
8 -130 10 -19 2 -71 6 -115 10 -44 3 -91 8 -105 10 -14 3 -47 7 -75 11 -62 7
-102 13 -135 19 -14 3 -34 7 -45 9 -11 2 -33 7 -49 12 l-29 7 7 -94z"/>
<path d="M165 2475 c4 -16 9 -38 11 -49 12 -62 59 -228 87 -312 230 -671 682
-1225 1307 -1601 61 -37 246 -130 334 -168 131 -57 415 -149 529 -170 12 -3
45 -9 72 -15 61 -12 95 -17 160 -25 28 -4 62 -8 77 -11 15 -2 60 -6 100 -9
l73 -5 -45 26 c-56 34 -164 121 -210 171 -114 123 -247 336 -334 535 -18 41
-31 59 -48 62 -655 143 -1181 408 -1586 800 -224 218 -369 425 -489 699 -24
56 -41 89 -38 72z"/>
<path d="M6030 2304 c-48 -102 -128 -231 -217 -349 -87 -115 -274 -304 -403
-408 -345 -276 -808 -499 -1261 -607 l-95 -23 -54 -105 c-56 -109 -183 -308
-240 -377 -104 -124 -237 -237 -347 -295 -24 -12 -43 -24 -43 -26 0 -2 15 -2
33 1 17 2 62 7 99 10 37 3 77 8 90 10 13 2 39 6 58 9 277 42 596 143 850 271
767 384 1317 1053 1548 1883 11 39 19 72 17 72 -2 0 -18 -30 -35 -66z"/>
<path d="M171 1054 l-1 -941 945 0 c520 0 944 1 943 2 -2 2 -37 15 -78 29
-199 71 -446 199 -650 337 -284 192 -490 385 -728 684 -4 6 -33 46 -64 90
-141 202 -267 454 -356 710 -7 21 -11 -247 -11 -911z"/>
<path d="M3785 875 c-39 -7 -100 -16 -135 -20 -36 -4 -73 -9 -82 -10 -128 -25
-727 -25 -855 -1 -10 2 -47 7 -83 11 -36 4 -85 11 -110 15 -25 5 -46 7 -48 5
-6 -6 111 -230 163 -310 127 -197 272 -328 422 -380 36 -13 73 -22 82 -20 158
32 281 102 416 239 69 70 164 189 204 257 39 66 110 194 116 212 8 20 7 20
-90 2z"/>
</g>
</svg>
