<?xml version="1.0" standalone="no"?>
<!DOCTYPE svg PUBLIC "-//W3C//DTD SVG 20010904//EN"
 "http://www.w3.org/TR/2001/REC-SVG-20010904/DTD/svg10.dtd">
<svg version="1.0" xmlns="http://www.w3.org/2000/svg"
 width="563.000000pt" height="563.000000pt" viewBox="0 0 563.000000 563.000000"
 preserveAspectRatio="xMidYMid meet">
<metadata>
Created by potrace 1.11, written by Peter Selinger 2001-2013
</metadata>
<g transform="translate(0.000000,563.000000) scale(0.100000,-0.100000)"
fill="#000000" stroke="none">
<path d="M2688 5605 c-2 -1 -48 -5 -102 -9 -55 -3 -129 -11 -165 -17 -36 -6
-75 -12 -86 -13 -11 -2 -33 -6 -50 -10 -16 -3 -39 -8 -50 -10 -420 -84 -872
-305 -1220 -596 -81 -68 -307 -301 -384 -396 -189 -234 -357 -543 -463 -854
-31 -91 -83 -290 -94 -354 -3 -21 -8 -48 -10 -60 -2 -11 -7 -41 -10 -66 -3
-25 -7 -56 -9 -70 -24 -136 -24 -532 0 -681 3 -14 7 -43 10 -65 35 -277 144
-611 287 -884 326 -621 890 -1112 1542 -1339 166 -59 382 -113 503 -127 32 -3
61 -8 64 -10 30 -18 507 -25 649 -10 324 34 648 126 938 267 618 299 1119 837
1370 1469 44 109 104 288 117 346 70 320 80 410 79 714 0 249 -6 313 -45 516
-19 103 -82 342 -98 379 -5 11 -24 58 -42 105 -178 467 -506 900 -919 1213
-41 31 -79 61 -85 65 -5 4 -57 37 -115 74 -245 153 -521 271 -790 338 -166 41
-269 59 -425 75 -62 6 -392 15 -397 10z m372 -259 c58 -7 117 -15 163 -22 521
-79 1041 -351 1417 -740 197 -204 326 -385 450 -633 115 -228 205 -503 235
-716 4 -22 11 -67 16 -100 14 -79 20 -471 8 -560 -4 -38 -11 -90 -14 -115 -2
-25 -7 -56 -10 -70 -3 -14 -8 -41 -11 -60 -3 -19 -17 -78 -30 -130 -206 -828
-813 -1497 -1619 -1783 -156 -56 -266 -83 -490 -122 -142 -24 -532 -25 -695
-2 -108 16 -133 21 -210 38 -25 6 -54 13 -66 15 -57 11 -232 68 -334 109 -495
199 -924 558 -1208 1011 -112 179 -201 371 -261 559 -17 55 -35 114 -41 130
-11 36 -56 261 -64 325 -73 556 46 1140 330 1620 140 238 309 442 524 634 59
53 249 193 330 242 337 209 730 339 1115 370 44 3 81 7 82 8 6 5 331 -2 383
-8z"/>
<path d="M2749 3906 c-2 -2 -24 -7 -49 -11 -68 -10 -187 -52 -260 -92 -115
-62 -209 -148 -286 -260 -142 -208 -190 -480 -138 -788 10 -56 64 -206 96
-263 44 -80 73 -118 143 -188 98 -97 211 -162 360 -206 80 -23 317 -33 421
-18 91 14 210 56 287 101 87 52 200 156 189 175 -4 7 -40 47 -79 88 -82 85
-98 89 -165 36 -106 -85 -203 -119 -356 -124 -222 -7 -402 102 -497 299 -60
125 -75 201 -71 360 4 148 19 215 73 325 67 137 202 244 343 270 140 27 302 5
405 -55 169 -98 171 -98 256 18 34 45 64 88 66 95 9 23 -88 97 -203 155 -65
33 -133 57 -209 73 -35 7 -319 16 -326 10z"/>
<path d="M684 3891 c-2 -2 -4 -409 -4 -903 l0 -898 569 0 569 0 -1 135 0 135
-399 0 -398 0 -1 33 c-4 136 0 459 6 465 3 4 140 8 303 8 164 1 302 2 309 3
17 2 16 248 0 253 -7 2 -148 4 -314 4 l-303 -1 -1 30 c-3 122 -1 457 3 461 3
3 183 6 399 7 l394 2 1 133 c1 72 -1 132 -5 133 -26 3 -1124 3 -1127 0z"/>
<path d="M3793 3892 l-23 -3 0 -900 0 -899 169 0 170 0 0 346 c0 191 3 349 6
352 11 11 176 3 203 -10 27 -13 88 -101 340 -486 92 -141 120 -176 147 -188
39 -16 365 -21 365 -5 0 4 -8 19 -18 32 -10 13 -81 116 -157 229 -76 113 -172
255 -213 315 -76 113 -131 175 -154 175 -7 0 28 20 77 45 50 24 111 62 136 84
107 93 170 234 171 382 3 313 -188 489 -567 525 -71 7 -612 12 -652 6z m677
-279 c75 -19 131 -54 164 -102 31 -45 57 -137 50 -179 -12 -81 -17 -99 -34
-133 -28 -53 -76 -97 -136 -124 -75 -33 -103 -38 -261 -39 l-143 -2 0 35 c-1
66 -1 546 0 554 0 14 300 6 360 -10z"/>
</g>
</svg>
