<?xml version="1.0" encoding="UTF-8" standalone="no"?>
<svg
   xmlns:dc="http://purl.org/dc/elements/1.1/"
   xmlns:cc="http://creativecommons.org/ns#"
   xmlns:rdf="http://www.w3.org/1999/02/22-rdf-syntax-ns#"
   xmlns:svg="http://www.w3.org/2000/svg"
   xmlns="http://www.w3.org/2000/svg"
   xmlns:sodipodi="http://sodipodi.sourceforge.net/DTD/sodipodi-0.dtd"
   xmlns:inkscape="http://www.inkscape.org/namespaces/inkscape"
   id="Layer_1"
   viewBox="0 0 641.64004 174.47"
   version="1.1"
   sodipodi:docname="AKA_EN_vaaka_valkoinen_RGB.svg"
   width="641.64001"
   height="174.47"
   inkscape:version="1.0.2-2 (e86c870879, 2021-01-15)">
  <metadata
     id="metadata130">
    <rdf:RDF>
      <cc:Work
         rdf:about="">
        <dc:format>image/svg+xml</dc:format>
        <dc:type
           rdf:resource="http://purl.org/dc/dcmitype/StillImage" />
      </cc:Work>
    </rdf:RDF>
  </metadata>
  <sodipodi:namedview
     pagecolor="#ffffff"
     bordercolor="#666666"
     borderopacity="1"
     objecttolerance="10"
     gridtolerance="10"
     guidetolerance="10"
     inkscape:pageopacity="0"
     inkscape:pageshadow="2"
     inkscape:window-width="1920"
     inkscape:window-height="1137"
     id="namedview128"
     showgrid="false"
     inkscape:zoom="0.99076843"
     inkscape:cx="320.82"
     inkscape:cy="86.885"
     inkscape:window-x="-8"
     inkscape:window-y="-8"
     inkscape:window-maximized="1"
     inkscape:current-layer="Layer_1" />
  <defs
     id="defs73">
    <style
       id="style71">.cls-1{fill:#005A9C;stroke-width:0px;}</style>
  </defs>
  <g
     id="g158">
    <path
       class="cls-1"
       d="M 353.68,53.32 320.83,0 253.91,108.59 h 35.9 c 10.38,-27.78 34.38,-48.9 63.87,-55.27 z"
       id="path75" />
    <path
       class="cls-1"
       d="m 357.54,59.59 c -27.41,5.05 -49.99,23.86 -60.32,49.01 h 90.52 z"
       id="path77" />
    <path
       class="cls-1"
       d="m 28.59,172.55 -0.37,0.9 H 21.89 L 11.18,157.89 H 6.17 v 15.56 H 0 v -37.34 h 11.76 c 8.39,0 12.92,3.64 12.92,11.07 0,4.85 -2.53,8.33 -7.23,9.81 l 11.13,15.56 z M 6.18,141.28 v 11.6 h 4.64 c 5.38,0 7.86,-1.58 7.86,-5.7 0,-4.32 -2.53,-5.91 -7.86,-5.91 H 6.18 Z"
       id="path79" />
    <path
       class="cls-1"
       d="m 36.67,162.64 v 0.26 c 0,4.32 2.9,6.96 6.75,6.96 2.69,0 4.59,-1.27 6.17,-3.8 l 0.47,-0.11 4.38,2.11 c -2.27,4.11 -6.12,6.38 -11.18,6.38 -7.59,0 -12.55,-5.27 -12.55,-12.76 0,-7.49 5.06,-12.82 12.34,-12.82 7.28,0 11.92,4.8 11.92,12.76 0,0.32 0,0.53 -0.05,1 H 36.67 Z m 0.11,-3.53 h 12.29 c -0.21,-3.64 -2.53,-5.8 -6.01,-5.8 -3.48,0 -5.75,2.16 -6.28,5.8 z"
       id="path81" />
    <path
       class="cls-1"
       d="m 58.08,169.13 3.74,-2.48 0.32,0.05 c 1.32,2.16 3.22,3.43 5.59,3.43 2.37,0 3.96,-1.11 3.96,-2.74 0,-1.32 -0.79,-2.43 -5.01,-3.9 -5.96,-2.16 -7.59,-4.43 -7.59,-7.7 0,-3.85 3.32,-6.91 8.81,-6.91 4.32,0 7.65,2 8.97,5.12 l -3.43,2.27 -0.42,-0.05 c -0.9,-1.9 -2.64,-3.01 -4.9,-3.01 -2.26,0 -3.43,1.05 -3.43,2.48 0,1.27 0.58,2.16 5.06,3.85 5.75,2.16 7.54,4.27 7.54,7.81 0,4.11 -3.69,7.12 -9.33,7.12 -4.48,0 -7.91,-1.85 -9.86,-5.33 z"
       id="path83" />
    <path
       class="cls-1"
       d="m 87.3,162.64 v 0.26 c 0,4.32 2.9,6.96 6.75,6.96 2.69,0 4.59,-1.27 6.17,-3.8 l 0.47,-0.11 4.38,2.11 c -2.27,4.11 -6.12,6.38 -11.18,6.38 -7.59,0 -12.55,-5.27 -12.55,-12.76 0,-7.49 5.06,-12.82 12.34,-12.82 7.28,0 11.92,4.8 11.92,12.76 0,0.32 0,0.53 -0.05,1 H 87.3 Z m 0.11,-3.53 H 99.7 c -0.21,-3.64 -2.53,-5.8 -6.01,-5.8 -3.48,0 -5.75,2.16 -6.28,5.8 z"
       id="path85" />
    <path
       class="cls-1"
       d="m 132.93,169.92 v 3.8 c -1.32,0.37 -2.32,0.58 -3.85,0.58 -2.69,0 -4.06,-1.32 -4.38,-3.32 -2.37,2.43 -4.8,3.48 -7.86,3.48 -4.27,0 -6.91,-2.48 -6.91,-6.22 0,-4.38 3.9,-7.33 14.35,-8.75 v -1.37 c 0,-3.01 -1.32,-4.43 -3.74,-4.43 -2.42,0 -4.59,1.37 -6.33,3.8 l -0.42,0.05 -3.53,-2.43 c 2.22,-3.74 6.33,-6.22 11.02,-6.22 5.54,0 8.75,2.95 8.75,8.49 v 11.34 c 0,1.05 0.26,1.37 1.05,1.37 0.42,0 0.79,-0.11 1.42,-0.37 l 0.42,0.21 z m -14.24,0.58 c 2.11,0 3.96,-0.9 5.59,-2.48 v -5.33 c -6.38,1.16 -8.7,2.64 -8.7,5.06 0,1.69 1.05,2.74 3.11,2.74 z"
       id="path87" />
    <path
       class="cls-1"
       d="m 138.16,173.45 v -23.57 h 5.33 v 4.48 c 1.95,-3.85 4.48,-5.49 7.49,-5.49 2.48,0 4.38,1.37 5.33,4.43 l -4.75,2.64 -0.47,-0.11 c -0.53,-1.32 -1.27,-1.79 -2.43,-1.79 -2.37,0 -4.75,3.06 -4.75,8.54 v 10.86 h -5.75 z"
       id="path89" />
    <path
       class="cls-1"
       d="m 156.35,161.69 c 0,-7.44 5.06,-12.82 12.39,-12.82 4.69,0 8.81,2.06 11.29,6.43 l -4.27,2.58 -0.42,-0.05 c -1.79,-2.95 -3.8,-4.06 -6.43,-4.06 -3.85,0 -6.75,3 -6.75,7.86 0,4.86 2.85,7.91 6.8,7.91 2.74,0 4.75,-1.16 6.49,-4.11 l 0.42,-0.05 4.22,2.53 c -2.48,4.38 -6.54,6.54 -11.34,6.54 -7.54,0 -12.39,-5.22 -12.39,-12.76 z"
       id="path91" />
    <path
       class="cls-1"
       d="m 185.26,134.8 h 5.75 v 11.5 c 0,2.58 0,5.12 -0.11,7.59 2,-3.27 4.96,-5.01 8.44,-5.01 5.48,0 8.7,3.32 8.7,9.33 v 15.24 h -5.75 v -13.13 c 0,-4.54 -1.63,-6.38 -5.01,-6.38 -3.74,0 -6.28,3.16 -6.28,7.86 v 11.65 h -5.75 v -38.66 z"
       id="path93" />
    <path
       class="cls-1"
       d="m 224.32,154.78 c 0,-11.44 8.44,-19.67 19.51,-19.67 7.54,0 13.39,3.22 16.98,9.86 l -4.43,2.85 -0.95,-0.16 c -2.69,-4.69 -6.38,-6.8 -11.44,-6.8 -7.49,0 -13.08,5.85 -13.08,13.92 0,8.07 5.7,13.92 13.18,13.92 5.43,0 8.97,-2.06 11.6,-6.7 l 0.9,-0.21 4.38,2.9 c -3.85,6.59 -9.49,9.76 -17.09,9.76 -11.23,0 -19.57,-8.23 -19.57,-19.67 z"
       id="path95" />
    <path
       class="cls-1"
       d="m 264.73,161.64 c 0,-7.22 5.59,-12.76 13.18,-12.76 7.59,0 13.13,5.54 13.13,12.76 0,7.22 -5.64,12.81 -13.13,12.81 -7.49,0 -13.18,-5.59 -13.18,-12.81 z m 20.51,0 c 0,-4.32 -3.11,-7.7 -7.33,-7.7 -4.22,0 -7.33,3.38 -7.33,7.7 0,4.32 3.16,7.75 7.33,7.75 4.17,0 7.33,-3.38 7.33,-7.75 z"
       id="path97" />
    <path
       class="cls-1"
       d="m 318,173.45 h -5.7 v -3.96 c -1.95,3.27 -4.96,4.96 -8.17,4.96 -5.22,0 -8.33,-3.32 -8.33,-9.54 v -15.03 h 5.75 v 13.39 c 0,4.27 1.58,6.12 4.69,6.12 3.48,0 6.01,-3.06 6.01,-7.91 v -11.6 H 318 Z"
       id="path99" />
    <path
       class="cls-1"
       d="m 325.13,149.88 h 5.64 v 4.01 c 2,-3.27 4.96,-5.01 8.44,-5.01 5.48,0 8.7,3.32 8.7,9.33 v 15.24 h -5.75 v -13.13 c 0,-4.54 -1.64,-6.38 -5.01,-6.38 -3.74,0 -6.27,3.16 -6.27,7.86 v 11.65 h -5.75 z"
       id="path101" />
    <path
       class="cls-1"
       d="m 352.71,161.69 c 0,-7.44 5.06,-12.82 12.39,-12.82 4.69,0 8.81,2.06 11.29,6.43 l -4.27,2.58 -0.42,-0.05 c -1.79,-2.95 -3.8,-4.06 -6.43,-4.06 -3.85,0 -6.75,3 -6.75,7.86 0,4.86 2.85,7.91 6.8,7.91 2.74,0 4.75,-1.16 6.49,-4.11 l 0.42,-0.05 4.22,2.53 c -2.48,4.38 -6.54,6.54 -11.34,6.54 -7.54,0 -12.39,-5.22 -12.39,-12.76 z"
       id="path103" />
    <path
       class="cls-1"
       d="m 381.2,139.33 c 0,-2 1.64,-3.53 3.8,-3.53 2.16,0 3.74,1.53 3.74,3.59 0,2.06 -1.63,3.53 -3.74,3.53 -2.11,0 -3.8,-1.48 -3.8,-3.59 z m 0.9,34.12 v -23.57 h 5.75 v 23.57 z"
       id="path105" />
    <path
       class="cls-1"
       d="m 395.44,173.45 v -38.66 h 5.75 v 38.66 z"
       id="path107" />
    <path
       class="cls-1"
       d="m 415.14,161.64 c 0,-7.22 5.59,-12.76 13.19,-12.76 7.6,0 13.13,5.54 13.13,12.76 0,7.22 -5.64,12.81 -13.13,12.81 -7.49,0 -13.19,-5.59 -13.19,-12.81 z m 20.51,0 c 0,-4.32 -3.11,-7.7 -7.33,-7.7 -4.22,0 -7.33,3.38 -7.33,7.7 0,4.32 3.16,7.75 7.33,7.75 4.17,0 7.33,-3.38 7.33,-7.75 z"
       id="path109" />
    <path
       class="cls-1"
       d="m 459.66,139.75 c -0.84,-0.37 -1.69,-0.53 -2.32,-0.53 -2.11,0 -2.95,1.21 -2.95,5.17 v 5.49 h 5.43 v 4.59 h -5.43 v 18.99 h -5.75 v -18.99 h -4.38 v -4.59 h 4.38 v -5.22 c 0,-7.75 2.32,-10.49 7.75,-10.49 1.27,0 2.8,0.26 4.06,0.63 l -0.26,4.75 -0.53,0.21 z"
       id="path111" />
    <path
       class="cls-1"
       d="m 477.07,136.11 h 21.36 l 0.63,5.38 h -15.87 v 10.49 h 14.61 v 5.22 h -14.61 v 16.24 h -6.12 V 136.1 Z"
       id="path113" />
    <path
       class="cls-1"
       d="m 504.02,139.33 c 0,-2 1.64,-3.53 3.8,-3.53 2.16,0 3.74,1.53 3.74,3.59 0,2.06 -1.63,3.53 -3.74,3.53 -2.11,0 -3.8,-1.48 -3.8,-3.59 z m 0.9,34.12 v -23.57 h 5.75 v 23.57 z"
       id="path115" />
    <path
       class="cls-1"
       d="m 518.16,149.88 h 5.64 v 4.01 c 2,-3.27 4.96,-5.01 8.44,-5.01 5.49,0 8.7,3.32 8.7,9.33 v 15.24 h -5.75 v -13.13 c 0,-4.54 -1.63,-6.38 -5.01,-6.38 -3.74,0 -6.28,3.16 -6.28,7.86 v 11.65 h -5.75 v -23.57 z"
       id="path117" />
    <path
       class="cls-1"
       d="m 548.54,173.45 v -38.66 h 5.75 v 38.66 z"
       id="path119" />
    <path
       class="cls-1"
       d="m 583.03,169.92 v 3.8 c -1.32,0.37 -2.32,0.58 -3.85,0.58 -2.69,0 -4.06,-1.32 -4.38,-3.32 -2.37,2.43 -4.8,3.48 -7.86,3.48 -4.27,0 -6.91,-2.48 -6.91,-6.22 0,-4.38 3.9,-7.33 14.34,-8.75 v -1.37 c 0,-3.01 -1.32,-4.43 -3.74,-4.43 -2.42,0 -4.59,1.37 -6.33,3.8 l -0.42,0.05 -3.53,-2.43 c 2.22,-3.74 6.33,-6.22 11.02,-6.22 5.54,0 8.76,2.95 8.76,8.49 v 11.34 c 0,1.05 0.26,1.37 1.05,1.37 0.42,0 0.79,-0.11 1.42,-0.37 l 0.42,0.21 z m -14.24,0.58 c 2.11,0 3.96,-0.9 5.59,-2.48 v -5.33 c -6.38,1.16 -8.7,2.64 -8.7,5.06 0,1.69 1.05,2.74 3.11,2.74 z"
       id="path121" />
    <path
       class="cls-1"
       d="m 588.05,149.88 h 5.64 v 4.01 c 2,-3.27 4.96,-5.01 8.44,-5.01 5.49,0 8.7,3.32 8.7,9.33 v 15.24 h -5.75 v -13.13 c 0,-4.54 -1.63,-6.38 -5.01,-6.38 -3.74,0 -6.28,3.16 -6.28,7.86 v 11.65 h -5.75 v -23.57 z"
       id="path123" />
    <path
       class="cls-1"
       d="m 616.59,161.64 c 0,-7.59 4.8,-12.76 10.86,-12.76 3.38,0 6.54,1.79 8.49,5.01 -0.05,-2.37 -0.05,-5.01 -0.05,-7.65 V 134.8 h 5.75 v 38.66 h -5.54 v -3.96 c -1.79,3.11 -5.22,4.96 -8.81,4.96 -6.38,0 -10.7,-4.96 -10.7,-12.81 z m 19.46,0.05 c 0,-4.54 -2.9,-7.81 -6.91,-7.81 -4.01,0 -6.75,3.01 -6.75,7.81 0,4.8 2.53,7.75 6.54,7.75 4.32,0 7.12,-3.11 7.12,-7.75 z"
       id="path125" />
  </g>
</svg>
