<svg width="192" height="69" xmlns="http://www.w3.org/2000/svg" xmlns:xlink="http://www.w3.org/1999/xlink"><defs><path d="M157.183 21.922c.257 0 .387.09.51.17.09.059.19.181.264.32.074.146.136.278.17.375.77 2.234 1.238 4.515 2.132 7.642l9.29 34.47c.185.586.325 1.01.436 1.316a33.277 33.277 0 01-12.855 2.566c-1.751 0-3.47-.135-5.15-.395l-4.213-.94a32.064 32.064 0 01-3.522-1.244c.105-.306.232-.714.408-1.243l9.456-34.608c.818-3.083 1.662-6.11 2.139-7.561.053-.16.096-.25.158-.376.071-.144.174-.244.257-.316a.92.92 0 01.52-.176zm-97.721 2.86l3.076.027c1.151 0 1.756.588 2.14 1.741l15.059 39.081c.511 1.396.358 2.15-1.177 2.15l-2.782-.027c-1.216 0-1.623-.73-2.006-1.823 0 0-2.428-6.822-2.606-7.315-.18-.494-.685-1.925-.853-2.368-.22-.582-.502-.898-.973-1.163-.438-.247-1.224-.343-1.725-.327-.501.016-.923.032-1.725.02-.783-.01-8.594-.022-9.468-.02h-.051c-.54.003-1.786-.04-2.488-.01-.502.022-1.093.03-1.594.276-.461.224-.706.654-.913 1.078-.181.37-.499 1.351-.696 1.866-.197.515-3.121 8.37-3.121 8.37-.32 1.093-1.122 1.415-2.274 1.415l-1.925-.027c-1.6 0-1.555-.998-1.043-2.394l14.898-38.836c.384-1.154 1.031-1.715 2.247-1.715zm-42.009.257l3.075.027c1.15 0 1.755.583 2.139 1.725l15.052 38.686c.51 1.382.358 2.128-1.177 2.128l-2.78-.027c-1.215 0-1.622-.723-2.005-1.805 0 0-2.427-6.752-2.605-7.24-.179-.489-.684-1.905-.853-2.344-.22-.576-.5-.89-.972-1.152-.438-.244-1.223-.339-1.724-.323-.501.015-.923.03-1.725.02-.63-.009-5.81-.018-8.263-.02h-1.251c-.54.003-1.785-.04-2.486-.01-.502.021-1.093.03-1.594.273-.46.222-.706.648-.913 1.067-.18.367-.497 1.337-.695 1.847-.197.51-3.12 8.286-3.12 8.286-.32 1.082-1.121 1.4-2.272 1.4l-1.925-.026c-1.599 0-1.554-.988-1.043-2.37l14.892-38.444c.383-1.143 1.03-1.698 2.245-1.698zm97.189-.257l1.34.013c1.776-.02 2.038.742 2.017 2.143l-.022 24.96c-.46 9.091-5.091 14.827-16.542 14.883-10.592.051-16.343-5.74-16.435-14.883V26.95c0-1.297.106-2.115 1.862-2.142l1.561-.013c1.66-.038 1.894.722 1.926 2.058v24.89c.013 5.181 3.084 10.492 11.164 10.57 8.432.081 10.97-5.389 11.047-10.492l.026-24.87c.078-1.44.176-2.194 2.056-2.168zm10.38-2l9.978 37c-7.363-6.273-12-15.427-12-25.617 0-3.99.71-7.824 2.022-11.384zm65.343 1A34.945 34.945 0 01192 34.384c0 10.088-4.246 19.154-11 25.396l9.365-36zM157.32 0c11.375 0 21.447 5.569 27.644 14.125l-9.147 37.45a35.172 35.172 0 01-.772 2.347c-.053.14-.147.419-.362.55a.8.8 0 01-.82.034c-.137-.078-.218-.134-.365-.506-.084-.213-.472-1.085-.847-2.406l-10.468-39.197c-.644-2.619-1.757-2.344-3.476-2.325l-2.38.019c-2.757-.038-3.02.787-3.42 2.306l-10.568 39.197c-.36 1.278-.672 2.1-.741 2.268-.15.366-.294.55-.462.644a.807.807 0 01-.585.078c-.228-.047-.36-.162-.49-.394-.135-.23-.535-1.165-.866-2.556l-8.975-38.237C136.45 5.253 146.272 0 157.319 0zM18.81 31.473a.602.602 0 00-.33.09.784.784 0 00-.256.258c-.345.58-1.194 2.88-1.902 4.86-3.954 11.186-3.35 9.516-3.435 9.739-.133.35-.444 1.234-.561 1.535-.268.687-.16 1.253-.094 1.414.064.154.27.43.615.566.374.148.665.135 1.176.135h.12c1.111.001 8.505.016 9.01.027.374.008.958-.006 1.31-.068.347-.06.736-.296.856-.512.149-.268.28-.794-.014-1.602-.187-.518-.347-1.091-.561-1.617-.214-.526-3.342-9.51-3.342-9.51-.662-1.865-1.845-4.75-1.985-4.972a.915.915 0 00-.246-.252.746.746 0 00-.36-.091zm42.01-.193a.598.598 0 00-.332.092.785.785 0 00-.256.26c-.345.585-1.193 2.91-1.902 4.91-3.956 11.3-3.352 9.613-3.437 9.837-.134.354-.444 1.247-.561 1.551-.268.695-.161 1.266-.094 1.43.063.155.27.433.615.57.374.15.665.137 1.177.137.455 0 8.603.015 9.134.027.374.008.958-.006 1.31-.068.348-.061.736-.3.857-.517.15-.27.28-.803-.013-1.62-.188-.522-.348-1.102-.562-1.632-.214-.531-3.344-9.607-3.344-9.607-.662-1.885-1.846-4.798-1.986-5.023a.93.93 0 00-.246-.255.741.741 0 00-.36-.092z" id="a"/></defs><g fill="none" fill-rule="evenodd"><mask id="b" fill="#fff"><use xlink:href="#a"/></mask><use fill="#0B2346" xlink:href="#a"/><path fill="#C23A09" mask="url(#b)" d="M123-8.219h75v86h-75z"/></g></svg>