<svg width="268" height="108" viewBox="0 0 268 108" fill="none" xmlns="http://www.w3.org/2000/svg">
<path d="M37.5575 75.0569C41.5119 75.0569 44.7177 71.7767 44.7177 67.7302C44.7177 63.6838 41.5119 60.4036 37.5575 60.4036C33.6031 60.4036 30.3973 63.6838 30.3973 67.7302C30.3973 71.7767 33.6031 75.0569 37.5575 75.0569Z" fill="#00007E"/>
<path d="M16.5682 25.0022C18.0902 25.0022 19.324 23.7423 19.324 22.1881C19.324 20.6339 18.0902 19.374 16.5682 19.374C15.0462 19.374 13.8124 20.6339 13.8124 22.1881C13.8124 23.7423 15.0462 25.0022 16.5682 25.0022Z" fill="#FF0087"/>
<path d="M29.8479 59.8372C31.3699 59.8372 32.6037 58.5773 32.6037 57.0231C32.6037 55.4689 31.3699 54.209 29.8479 54.209C28.3259 54.209 27.092 55.4689 27.092 57.0231C27.092 58.5773 28.3259 59.8372 29.8479 59.8372Z" fill="#FF0087"/>
<path d="M26.4676 67.8218C27.9896 67.8218 29.2235 66.5619 29.2235 65.0077C29.2235 63.4535 27.9896 62.1936 26.4676 62.1936C24.9456 62.1936 23.7118 63.4535 23.7118 65.0077C23.7118 66.5619 24.9456 67.8218 26.4676 67.8218Z" fill="#FF0087"/>
<path d="M27.6499 98.5521C29.1719 98.5521 30.4057 97.2921 30.4057 95.7379C30.4057 94.1838 29.1719 92.9238 27.6499 92.9238C26.1279 92.9238 24.894 94.1838 24.894 95.7379C24.894 97.2921 26.1279 98.5521 27.6499 98.5521Z" fill="#009CEE"/>
<path d="M71.4851 107.494C73.0071 107.494 74.2409 106.234 74.2409 104.68C74.2409 103.126 73.0071 101.866 71.4851 101.866C69.9631 101.866 68.7292 103.126 68.7292 104.68C68.7292 106.234 69.9631 107.494 71.4851 107.494Z" fill="#FF0087"/>
<path d="M83.3993 93.0071C84.9213 93.0071 86.1551 91.7472 86.1551 90.193C86.1551 88.6388 84.9213 87.3789 83.3993 87.3789C81.8773 87.3789 80.6434 88.6388 80.6434 90.193C80.6434 91.7472 81.8773 93.0071 83.3993 93.0071Z" fill="#FF0087"/>
<path d="M78.6867 106.345C80.2087 106.345 81.4426 105.085 81.4426 103.531C81.4426 101.977 80.2087 100.717 78.6867 100.717C77.1647 100.717 75.9309 101.977 75.9309 103.531C75.9309 105.085 77.1647 106.345 78.6867 106.345Z" fill="#009CEE"/>
<path d="M90.3679 88.4947C91.8899 88.4947 93.1237 87.2348 93.1237 85.6806C93.1237 84.1264 91.8899 82.8665 90.3679 82.8665C88.8459 82.8665 87.6121 84.1264 87.6121 85.6806C87.6121 87.2348 88.8459 88.4947 90.3679 88.4947Z" fill="#009CEE"/>
<path d="M36.3669 29.2984C37.8889 29.2984 39.1227 28.0385 39.1227 26.4843C39.1227 24.9301 37.8889 23.6702 36.3669 23.6702C34.8449 23.6702 33.6111 24.9301 33.6111 26.4843C33.6111 28.0385 34.8449 29.2984 36.3669 29.2984Z" fill="#FF0087"/>
<path d="M47.4569 81.9839C50.0917 81.9839 52.2276 79.7958 52.2276 77.0967C52.2276 74.3976 50.0917 72.2095 47.4569 72.2095C44.8222 72.2095 42.6863 74.3976 42.6863 77.0967C42.6863 79.7958 44.8222 81.9839 47.4569 81.9839Z" fill="#00007E"/>
<path d="M21.0725 62.3101C23.7073 62.3101 25.8432 60.122 25.8432 57.4229C25.8432 54.7237 23.7073 52.5356 21.0725 52.5356C18.4378 52.5356 16.3019 54.7237 16.3019 57.4229C16.3019 60.122 18.4378 62.3101 21.0725 62.3101Z" fill="#009CEE"/>
<path d="M82.6667 85.5223C85.3014 85.5223 87.4373 83.3342 87.4373 80.635C87.4373 77.9359 85.3014 75.7478 82.6667 75.7478C80.0319 75.7478 77.896 77.9359 77.896 80.635C77.896 83.3342 80.0319 85.5223 82.6667 85.5223Z" fill="#00007E"/>
<path d="M75.215 99.6844C77.8498 99.6844 79.9857 97.4963 79.9857 94.7971C79.9857 92.098 77.8498 89.9099 75.215 89.9099C72.5802 89.9099 70.4443 92.098 70.4443 94.7971C70.4443 97.4963 72.5802 99.6844 75.215 99.6844Z" fill="#00007E"/>
<path d="M86.8212 103.772C89.456 103.772 91.5919 101.584 91.5919 98.8853C91.5919 96.1861 89.456 93.998 86.8212 93.998C84.1864 93.998 82.0505 96.1861 82.0505 98.8853C82.0505 101.584 84.1864 103.772 86.8212 103.772Z" fill="#00007E"/>
<path d="M99.1349 86.3799C101.77 86.3799 103.906 84.1918 103.906 81.4927C103.906 78.7936 101.77 76.6055 99.1349 76.6055C96.5002 76.6055 94.3643 78.7936 94.3643 81.4927C94.3643 84.1918 96.5002 86.3799 99.1349 86.3799Z" fill="#FF0087"/>
<path d="M62.6681 106.895C65.3029 106.895 67.4388 104.706 67.4388 102.007C67.4388 99.3082 65.3029 97.1201 62.6681 97.1201C60.0334 97.1201 57.8975 99.3082 57.8975 102.007C57.8975 104.706 60.0334 106.895 62.6681 106.895Z" fill="#009CEE"/>
<path d="M51.5199 103.522C54.1547 103.522 56.2906 101.334 56.2906 98.6353C56.2906 95.9361 54.1547 93.748 51.5199 93.748C48.8852 93.748 46.7493 95.9361 46.7493 98.6353C46.7493 101.334 48.8852 103.522 51.5199 103.522Z" fill="#00007E"/>
<path d="M26.0514 80.8516C28.6862 80.8516 30.8221 78.6635 30.8221 75.9644C30.8221 73.2652 28.6862 71.0771 26.0514 71.0771C23.4167 71.0771 21.2808 73.2652 21.2808 75.9644C21.2808 78.6635 23.4167 80.8516 26.0514 80.8516Z" fill="#009CEE"/>
<path d="M2.75583 38.8313C4.27783 38.8313 5.51166 37.5714 5.51166 36.0172C5.51166 34.463 4.27783 33.2031 2.75583 33.2031C1.23383 33.2031 0 34.463 0 36.0172C0 37.5714 1.23383 38.8313 2.75583 38.8313Z" fill="#009CEE"/>
<path d="M8.25912 61.6106C9.78113 61.6106 11.015 60.3507 11.015 58.7965C11.015 57.2423 9.78113 55.9824 8.25912 55.9824C6.73712 55.9824 5.5033 57.2423 5.5033 58.7965C5.5033 60.3507 6.73712 61.6106 8.25912 61.6106Z" fill="#FF0087"/>
<path d="M35.0349 82.7747C36.5569 82.7747 37.7907 81.5148 37.7907 79.9606C37.7907 78.4064 36.5569 77.1465 35.0349 77.1465C33.5129 77.1465 32.2791 78.4064 32.2791 79.9606C32.2791 81.5148 33.5129 82.7747 35.0349 82.7747Z" fill="#FF0087"/>
<path d="M18.4083 86.2798C19.9303 86.2798 21.1641 85.0199 21.1641 83.4657C21.1641 81.9115 19.9303 80.6516 18.4083 80.6516C16.8863 80.6516 15.6525 81.9115 15.6525 83.4657C15.6525 85.0199 16.8863 86.2798 18.4083 86.2798Z" fill="#FF0087"/>
<path d="M51.8695 91.7166C53.3915 91.7166 54.6253 90.4567 54.6253 88.9025C54.6253 87.3483 53.3915 86.0884 51.8695 86.0884C50.3475 86.0884 49.1136 87.3483 49.1136 88.9025C49.1136 90.4567 50.3475 91.7166 51.8695 91.7166Z" fill="#009CEE"/>
<path d="M54.95 84.5899C56.4721 84.5899 57.7059 83.33 57.7059 81.7758C57.7059 80.2216 56.4721 78.9617 54.95 78.9617C53.428 78.9617 52.1942 80.2216 52.1942 81.7758C52.1942 83.33 53.428 84.5899 54.95 84.5899Z" fill="#00007E"/>
<path d="M74.2325 87.021C75.7545 87.021 76.9883 85.7611 76.9883 84.2069C76.9883 82.6527 75.7545 81.3928 74.2325 81.3928C72.7105 81.3928 71.4767 82.6527 71.4767 84.2069C71.4767 85.7611 72.7105 87.021 74.2325 87.021Z" fill="#00007E"/>
<path d="M105.254 91.0008C106.776 91.0008 108.01 89.7409 108.01 88.1867C108.01 86.6325 106.776 85.3726 105.254 85.3726C103.732 85.3726 102.499 86.6325 102.499 88.1867C102.499 89.7409 103.732 91.0008 105.254 91.0008Z" fill="#00007E"/>
<path d="M95.2968 19.4739C97.9316 19.4739 100.067 17.2858 100.067 14.5867C100.067 11.8875 97.9316 9.69946 95.2968 9.69946C92.662 9.69946 90.5261 11.8875 90.5261 14.5867C90.5261 17.2858 92.662 19.4739 95.2968 19.4739Z" fill="#00007E"/>
<path d="M103.473 27.0755C106.107 27.0755 108.243 24.8874 108.243 22.1883C108.243 19.4891 106.107 17.301 103.473 17.301C100.838 17.301 98.702 19.4891 98.702 22.1883C98.702 24.8874 100.838 27.0755 103.473 27.0755Z" fill="#FF0087"/>
<path d="M88.095 27.8663C90.7298 27.8663 92.8657 25.6782 92.8657 22.979C92.8657 20.2799 90.7298 18.0918 88.095 18.0918C85.4602 18.0918 83.3243 20.2799 83.3243 22.979C83.3243 25.6782 85.4602 27.8663 88.095 27.8663Z" fill="#009CEE"/>
<path d="M25.0523 34.6685C27.687 34.6685 29.8229 32.4804 29.8229 29.7813C29.8229 27.0821 27.687 24.894 25.0523 24.894C22.4175 24.894 20.2816 27.0821 20.2816 29.7813C20.2816 32.4804 22.4175 34.6685 25.0523 34.6685Z" fill="#00007E"/>
<path d="M84.1069 33.761C85.6289 33.761 86.8627 32.5011 86.8627 30.9469C86.8627 29.3927 85.6289 28.1328 84.1069 28.1328C82.5849 28.1328 81.3511 29.3927 81.3511 30.9469C81.3511 32.5011 82.5849 33.761 84.1069 33.761Z" fill="#FF0087"/>
<path d="M77.3214 29.9478C79.9562 29.9478 82.0921 27.7597 82.0921 25.0606C82.0921 22.3614 79.9562 20.1733 77.3214 20.1733C74.6867 20.1733 72.5508 22.3614 72.5508 25.0606C72.5508 27.7597 74.6867 29.9478 77.3214 29.9478Z" fill="#00007E"/>
<path d="M91.7666 40.1885C94.4014 40.1885 96.5373 38.0004 96.5373 35.3013C96.5373 32.6021 94.4014 30.4141 91.7666 30.4141C89.1319 30.4141 86.996 32.6021 86.996 35.3013C86.996 38.0004 89.1319 40.1885 91.7666 40.1885Z" fill="#FF0087"/>
<path d="M38.2569 58.7967C40.8916 58.7967 43.0275 56.6086 43.0275 53.9094C43.0275 51.2103 40.8916 49.0222 38.2569 49.0222C35.6221 49.0222 33.4862 51.2103 33.4862 53.9094C33.4862 56.6086 35.6221 58.7967 38.2569 58.7967Z" fill="#00007E"/>
<path d="M96.1709 30.0894C97.6929 30.0894 98.9267 28.8295 98.9267 27.2753C98.9267 25.7211 97.6929 24.4612 96.1709 24.4612C94.6489 24.4612 93.415 25.7211 93.415 27.2753C93.415 28.8295 94.6489 30.0894 96.1709 30.0894Z" fill="#00007E"/>
<path d="M96.2875 97.8111C98.9223 97.8111 101.058 95.623 101.058 92.9238C101.058 90.2247 98.9223 88.0366 96.2875 88.0366C93.6527 88.0366 91.5168 90.2247 91.5168 92.9238C91.5168 95.623 93.6527 97.8111 96.2875 97.8111Z" fill="#FF0087"/>
<path d="M39.9054 47.6482C41.4274 47.6482 42.6612 46.3883 42.6612 44.8341C42.6612 43.2799 41.4274 42.02 39.9054 42.02C38.3834 42.02 37.1495 43.2799 37.1495 44.8341C37.1495 46.3883 38.3834 47.6482 39.9054 47.6482Z" fill="#FF0087"/>
<path d="M51.395 33.6194C52.917 33.6194 54.1508 32.3595 54.1508 30.8053C54.1508 29.2511 52.917 27.9912 51.395 27.9912C49.873 27.9912 48.6392 29.2511 48.6392 30.8053C48.6392 32.3595 49.873 33.6194 51.395 33.6194Z" fill="#00007E"/>
<path d="M52.7771 20.7061C54.2991 20.7061 55.5329 19.4462 55.5329 17.892C55.5329 16.3378 54.2991 15.0779 52.7771 15.0779C51.2551 15.0779 50.0212 16.3378 50.0212 17.892C50.0212 19.4462 51.2551 20.7061 52.7771 20.7061Z" fill="#FF0087"/>
<path d="M5.51169 77.8792C7.03369 77.8792 8.26752 76.6193 8.26752 75.0651C8.26752 73.5109 7.03369 72.251 5.51169 72.251C3.98969 72.251 2.75586 73.5109 2.75586 75.0651C2.75586 76.6193 3.98969 77.8792 5.51169 77.8792Z" fill="#00007E"/>
<path d="M18.3667 70.5442C19.8887 70.5442 21.1225 69.2843 21.1225 67.7301C21.1225 66.1759 19.8887 64.916 18.3667 64.916C16.8447 64.916 15.6108 66.1759 15.6108 67.7301C15.6108 69.2843 16.8447 70.5442 18.3667 70.5442Z" fill="#00007E"/>
<path d="M29.2152 88.4947C30.7372 88.4947 31.971 87.2348 31.971 85.6806C31.971 84.1264 30.7372 82.8665 29.2152 82.8665C27.6932 82.8665 26.4594 84.1264 26.4594 85.6806C26.4594 87.2348 27.6932 88.4947 29.2152 88.4947Z" fill="#00007E"/>
<path d="M18.3667 41.2957C19.8887 41.2957 21.1225 40.0358 21.1225 38.4816C21.1225 36.9274 19.8887 35.6675 18.3667 35.6675C16.8447 35.6675 15.6108 36.9274 15.6108 38.4816C15.6108 40.0358 16.8447 41.2957 18.3667 41.2957Z" fill="#00007E"/>
<path d="M33.6611 36.6668C35.1831 36.6668 36.4169 35.4069 36.4169 33.8527C36.4169 32.2985 35.1831 31.0386 33.6611 31.0386C32.1391 31.0386 30.9053 32.2985 30.9053 33.8527C30.9053 35.4069 32.1391 36.6668 33.6611 36.6668Z" fill="#009CEE"/>
<path d="M15.6191 50.4959C17.1411 50.4959 18.3749 49.236 18.3749 47.6818C18.3749 46.1276 17.1411 44.8677 15.6191 44.8677C14.0971 44.8677 12.8633 46.1276 12.8633 47.6818C12.8633 49.236 14.0971 50.4959 15.6191 50.4959Z" fill="#009CEE"/>
<path d="M42.9443 40.9046C45.579 40.9046 47.7149 38.7165 47.7149 36.0174C47.7149 33.3182 45.579 31.1301 42.9443 31.1301C40.3095 31.1301 38.1736 33.3182 38.1736 36.0174C38.1736 38.7165 40.3095 40.9046 42.9443 40.9046Z" fill="#00007E"/>
<path d="M31.663 23.6368C34.2978 23.6368 36.4337 21.4487 36.4337 18.7495C36.4337 16.0504 34.2978 13.8623 31.663 13.8623C29.0282 13.8623 26.8923 16.0504 26.8923 18.7495C26.8923 21.4487 29.0282 23.6368 31.663 23.6368Z" fill="#009CEE"/>
<path d="M59.2878 29.3484C61.9225 29.3484 64.0584 27.1603 64.0584 24.4612C64.0584 21.7621 61.9225 19.574 59.2878 19.574C56.653 19.574 54.5171 21.7621 54.5171 24.4612C54.5171 27.1603 56.653 29.3484 59.2878 29.3484Z" fill="#00007E"/>
<path d="M69.3037 9.77445C71.9385 9.77445 74.0744 7.58637 74.0744 4.88723C74.0744 2.18808 71.9385 0 69.3037 0C66.669 0 64.5331 2.18808 64.5331 4.88723C64.5331 7.58637 66.669 9.77445 69.3037 9.77445Z" fill="#FF0087"/>
<path d="M70.7691 20.648C73.4038 20.648 75.5397 18.4599 75.5397 15.7608C75.5397 13.0616 73.4038 10.8735 70.7691 10.8735C68.1343 10.8735 65.9984 13.0616 65.9984 15.7608C65.9984 18.4599 68.1343 20.648 70.7691 20.648Z" fill="#00007E"/>
<path d="M56.9232 10.9485C59.558 10.9485 61.6939 8.76044 61.6939 6.0613C61.6939 3.36216 59.558 1.17407 56.9232 1.17407C54.2885 1.17407 52.1526 3.36216 52.1526 6.0613C52.1526 8.76044 54.2885 10.9485 56.9232 10.9485Z" fill="#009CEE"/>
<path d="M68.3213 27.6331C69.8433 27.6331 71.0771 26.3732 71.0771 24.819C71.0771 23.2648 69.8433 22.0049 68.3213 22.0049C66.7993 22.0049 65.5654 23.2648 65.5654 24.819C65.5654 26.3732 66.7993 27.6331 68.3213 27.6331Z" fill="#00007E"/>
<path d="M60.9613 17.6756C62.4833 17.6756 63.7171 16.4157 63.7171 14.8615C63.7171 13.3073 62.4833 12.0474 60.9613 12.0474C59.4393 12.0474 58.2054 13.3073 58.2054 14.8615C58.2054 16.4157 59.4393 17.6756 60.9613 17.6756Z" fill="#00007E"/>
<path d="M91.367 78.4039C94.0018 78.4039 96.1376 76.2158 96.1376 73.5166C96.1376 70.8175 94.0018 68.6294 91.367 68.6294C88.7322 68.6294 86.5963 70.8175 86.5963 73.5166C86.5963 76.2158 88.7322 78.4039 91.367 78.4039Z" fill="#00007E"/>
<path d="M45.1673 29.2818C47.802 29.2818 49.9379 27.0937 49.9379 24.3945C49.9379 21.6954 47.802 19.5073 45.1673 19.5073C42.5325 19.5073 40.3966 21.6954 40.3966 24.3945C40.3966 27.0937 42.5325 29.2818 45.1673 29.2818Z" fill="#00007E"/>
<path d="M83.0995 16.5517C86.7826 16.5517 89.7684 13.4988 89.7684 9.73287C89.7684 5.96694 86.7826 2.91406 83.0995 2.91406C79.4163 2.91406 76.4305 5.96694 76.4305 9.73287C76.4305 13.4988 79.4163 16.5517 83.0995 16.5517Z" fill="#FF0087"/>
<path d="M44.01 17.8171C47.6932 17.8171 50.6789 14.7642 50.6789 10.9982C50.6789 7.23233 47.6932 4.17944 44.01 4.17944C40.3269 4.17944 37.3411 7.23233 37.3411 10.9982C37.3411 14.7642 40.3269 17.8171 44.01 17.8171Z" fill="#FF0087"/>
<path d="M28.5741 51.0702C32.2572 51.0702 35.243 48.0173 35.243 44.2514C35.243 40.4855 32.2572 37.4326 28.5741 37.4326C24.8909 37.4326 21.9052 40.4855 21.9052 44.2514C21.9052 48.0173 24.8909 51.0702 28.5741 51.0702Z" fill="#FF0087"/>
<path d="M40.5382 97.1034C44.2214 97.1034 47.2071 94.0505 47.2071 90.2846C47.2071 86.5187 44.2214 83.4658 40.5382 83.4658C36.855 83.4658 33.8693 86.5187 33.8693 90.2846C33.8693 94.0505 36.855 97.1034 40.5382 97.1034Z" fill="#FF0087"/>
<path d="M64.0001 94.2228C67.6833 94.2228 70.6691 91.1699 70.6691 87.404C70.6691 83.6381 67.6833 80.5852 64.0001 80.5852C60.317 80.5852 57.3312 83.6381 57.3312 87.404C57.3312 91.1699 60.317 94.2228 64.0001 94.2228Z" fill="#FF0087"/>
<path d="M138.999 31.7461C137.791 33.2781 135.835 34.2272 133.878 34.2272C131.922 34.2272 130.323 33.5195 129.091 32.229C127.842 30.9302 127.159 29.1069 127.159 27.1087C127.159 25.1105 127.842 23.2871 129.091 21.9883C130.323 20.7062 132.022 19.9901 133.878 19.9901C135.735 19.9901 137.766 20.9393 138.999 22.4712L141.388 20.0817C139.556 17.9753 136.792 16.7681 133.795 16.7681C130.956 16.7681 128.358 17.8171 126.468 19.7154C124.578 21.622 123.538 24.2446 123.538 27.1087C123.538 29.9727 124.578 32.5954 126.468 34.502C128.358 36.4002 130.973 37.4493 133.82 37.4493C136.826 37.4493 139.581 36.242 141.388 34.1356L138.999 31.7461Z" fill="black"/>
<path d="M175.965 37.1162H179.662V17.1177H176.381V31.0883L168.131 17.1177H164.242V37.1162H167.489V22.7209L175.965 37.1162Z" fill="black"/>
<path d="M198.819 31.7461C197.612 33.2781 195.656 34.2272 193.699 34.2272C191.742 34.2272 190.144 33.5195 188.912 32.229C187.663 30.9302 186.98 29.1069 186.98 27.1087C186.98 25.1105 187.663 23.2871 188.912 21.9883C190.144 20.7062 191.842 19.9901 193.699 19.9901C195.556 19.9901 197.587 20.9393 198.819 22.4712L201.209 20.0817C199.377 17.9753 196.613 16.7681 193.616 16.7681C190.777 16.7681 188.179 17.8171 186.289 19.7154C184.399 21.622 183.358 24.2446 183.358 27.1087C183.358 29.9727 184.399 32.5954 186.289 34.502C188.179 36.4002 190.793 37.4493 193.641 37.4493C196.646 37.4493 199.402 36.242 201.209 34.1356L198.819 31.7461Z" fill="black"/>
<path d="M208.061 20.115H217.111V17.1177H204.639V37.1162H217.111V34.1189H208.061V28.4407H215.687V25.4518H208.061V20.115Z" fill="black"/>
<path d="M130.931 56.84L135.593 64.0918H139.573L134.494 56.4903L134.544 56.4737C137.184 55.6244 138.89 53.2683 138.89 50.4791C138.89 46.7742 135.968 44.0933 131.93 44.0933H124.645V64.0918H128.067V56.84H130.931ZM128.067 47.0073H131.281C133.812 47.0073 135.269 48.2728 135.269 50.4875C135.269 52.7021 133.787 53.9343 131.306 53.9343H128.067V47.0073Z" fill="black"/>
<path d="M227.668 29.8146L232.331 37.0664H236.31L231.232 29.4649L231.282 29.4483C233.921 28.5991 235.628 26.2429 235.628 23.4537C235.628 19.7488 232.705 17.0679 228.667 17.0679H221.382V37.0664H224.804V29.8146H227.668ZM224.804 19.9819H228.018C230.549 19.9819 232.006 21.2474 232.006 23.4621C232.006 25.6767 230.524 26.9089 228.043 26.9089H224.804V19.9819Z" fill="black"/>
<path d="M219.159 56.84L223.822 64.0918H227.801L222.723 56.4903L222.772 56.4737C225.412 55.6244 227.119 53.2683 227.119 50.4791C227.119 46.7742 224.196 44.0933 220.158 44.0933H212.873V64.0918H216.295V56.84H219.159ZM216.295 47.0073H219.509C222.04 47.0073 223.497 48.2728 223.497 50.4875C223.497 52.7021 222.015 53.9343 219.534 53.9343H216.295V47.0073Z" fill="black"/>
<path d="M146.917 47.0822H155.975V44.085H143.495V64.0835H155.975V61.0862H146.917V55.4163H154.551V52.4191H146.917V47.0822Z" fill="black"/>
<path d="M166.266 64.4249C170.403 64.4249 173.076 62.0936 173.076 58.4886C173.076 55.7661 171.436 53.7762 168.472 52.8937L166.141 52.186C164.109 51.5949 163.243 50.7206 163.243 49.2803C163.243 47.7317 164.517 46.6577 166.349 46.6577C167.864 46.6577 169.096 47.2322 170.328 48.5143L172.551 46.2913C171.053 44.6262 168.921 43.7437 166.407 43.7437C162.402 43.7437 159.705 46.1498 159.705 49.7299C159.705 51.0121 160.104 52.1444 160.895 53.0768C161.695 54.026 162.852 54.7337 164.342 55.1833L167.131 56.0075C168.722 56.4821 169.604 57.4812 169.604 58.7966C169.604 60.4701 168.33 61.5025 166.274 61.5025C164.475 61.5025 162.894 60.6699 161.437 58.9632L159.189 61.2111C160.904 63.2426 163.485 64.4165 166.274 64.4165L166.266 64.4249Z" fill="black"/>
<path d="M180.286 47.0822H189.336V44.085H176.856V64.0835H189.336V61.0862H180.286V55.4163H187.913V52.4191H180.286V47.0822Z" fill="black"/>
<path d="M197.063 59.5626H204.564L206.071 64.0835H209.834L202.982 44.085H198.886L192 64.0835H195.531L197.063 59.5626ZM200.842 48.3145L203.648 56.7401H198.003L200.842 48.3145Z" fill="black"/>
<path d="M148.29 32.5953H155.792L157.299 37.1162H161.062L154.21 17.1177H150.114L143.228 37.1162H146.758L148.29 32.5953ZM152.07 21.3472L154.876 29.7728H149.231L152.07 21.3472Z" fill="black"/>
<path d="M245.527 49.4551L247.916 47.0656C246.085 44.9592 243.321 43.752 240.323 43.752C237.484 43.752 234.887 44.801 232.997 46.6993C231.107 48.6059 230.066 51.2285 230.066 54.0926C230.066 56.9566 231.107 59.5792 232.997 61.4858C234.887 63.3841 237.501 64.4332 240.348 64.4332C243.354 64.4332 246.11 63.2259 247.916 61.1195L245.527 58.73C244.32 60.262 242.363 61.2111 240.407 61.2111C238.45 61.2111 236.851 60.5034 235.619 59.2129C234.37 57.9141 233.688 56.0907 233.688 54.0926C233.688 52.0944 234.37 50.271 235.619 48.9722C236.851 47.69 238.55 46.974 240.407 46.974C242.263 46.974 244.295 47.9232 245.527 49.4551Z" fill="black"/>
<path d="M263.827 64.0835H267.274V44.085H263.827V52.3774V52.4191H263.785H255.152H255.11V52.3774V44.085H251.688V64.0835H255.11V55.4496V55.4163H255.152H263.785H263.827V55.4496V64.0835Z" fill="black"/>
<path d="M132.088 91.6917C136.851 91.6917 139.548 89.0524 139.548 84.6231V71.3518H136.126V84.39C136.11 85.6805 135.743 86.7628 135.011 87.5038C134.278 88.2448 133.37 88.6361 132.088 88.6361C130.806 88.6361 129.882 88.2448 129.149 87.5038C128.425 86.7628 128.034 85.6888 128.034 84.39V71.3518H124.612V84.6231C124.612 89.0524 127.334 91.6917 132.088 91.6917Z" fill="black"/>
<path d="M149.314 82.092L156.125 91.3503H160.296L151.704 79.6942L159.996 71.3518H155.434L147 80.1022V71.3518H143.578V91.3503H147V84.4316L149.314 82.092Z" fill="black"/>
</svg>
