<?xml version="1.0" encoding="UTF-8"?>
<svg width="176px" height="126px" viewBox="0 0 176 126" version="1.1" xmlns="http://www.w3.org/2000/svg" xmlns:xlink="http://www.w3.org/1999/xlink">
    <!-- Generator: Sketch 52.4 (67378) - http://www.bohemiancoding.com/sketch -->
    <title>Artboard</title>
    <desc>Created with Sketch.</desc>
    <defs>
        <polygon id="path-1" points="0.0133984213 0.0993716244 74.0382935 0.0993716244 74.0382935 74.1378412 0.0133984213 74.1378412"></polygon>
        <polygon id="path-3" points="0.0133984213 0.0993716244 74.0382935 0.0993716244 74.0382935 74.1378412 0.0133984213 74.1378412"></polygon>
    </defs>
    <g id="Artboard" stroke="none" stroke-width="1" fill="none" fill-rule="evenodd">
        <g id="Group-Copy">
            <g id="Group-3">
                <g id="Group">
                    <path d="M16.609375,9.875 C16.609375,12.208345 15.812508,13.9973896 14.21875,15.2421875 C12.624992,16.4869854 10.3802228,17.109375 7.484375,17.109375 L4.859375,17.109375 L4.859375,26 L1.984375,26 L1.984375,3.15625 L8.03125,3.15625 C13.7500286,3.15625 16.609375,5.39581094 16.609375,9.875 Z M4.859375,14.640625 L7.15625,14.640625 C9.42709469,14.640625 11.0729116,14.2734412 12.09375,13.5390625 C13.1145884,12.8046838 13.625,11.6250081 13.625,10 C13.625,8.53124266 13.1510464,7.43229531 12.203125,6.703125 C11.2552036,5.97395469 9.77605172,5.609375 7.765625,5.609375 L4.859375,5.609375 L4.859375,14.640625 Z M35.859375,17.390625 C35.859375,20.1927223 35.1510488,22.3802005 33.734375,23.953125 C32.3177012,25.5260495 30.3593875,26.3125 27.859375,26.3125 C26.3072839,26.3125 24.9322977,25.9505245 23.734375,25.2265625 C22.5364523,24.5026005 21.6145866,23.4635484 20.96875,22.109375 C20.3229134,20.7552016 20,19.1823006 20,17.390625 C20,14.5989444 20.6979097,12.424487 22.09375,10.8671875 C23.4895903,9.30988805 25.4479041,8.53125 27.96875,8.53125 C30.3854288,8.53125 32.3046804,9.32551289 33.7265625,10.9140625 C35.1484446,12.5026121 35.859375,14.6614447 35.859375,17.390625 Z M22.90625,17.390625 C22.90625,19.5468858 23.3307249,21.1848902 24.1796875,22.3046875 C25.0286501,23.4244848 26.2812417,23.984375 27.9375,23.984375 C29.5729248,23.984375 30.8177041,23.4244848 31.671875,22.3046875 C32.5260459,21.1848902 32.953125,19.5468858 32.953125,17.390625 C32.953125,15.2343642 32.5234418,13.6119846 31.6640625,12.5234375 C30.8046832,11.4348904 29.5468833,10.890625 27.890625,10.890625 C24.5676917,10.890625 22.90625,13.05727 22.90625,17.390625 Z M54.015625,26 L51.078125,16.34375 C50.8072903,15.5416627 50.4114609,14.0260528 49.890625,11.796875 L49.765625,11.796875 C49.3281228,13.8281352 48.94271,15.3541616 48.609375,16.375 L45.53125,26 L42.34375,26 L37.640625,8.84375 L40.546875,8.84375 C41.6302137,13.0625211 42.4557263,16.2708223 43.0234375,18.46875 C43.5911487,20.6666777 43.9270828,22.2187455 44.03125,23.125 L44.15625,23.125 L44.375,22.15625 C44.6979183,20.6666592 45.0104152,19.4531297 45.3125,18.515625 L48.359375,8.84375 L51.421875,8.84375 L54.375,18.515625 C54.4791672,18.8802102 54.5911452,19.2682271 54.7109375,19.6796875 C54.8307298,20.0911479 54.9427078,20.4973938 55.046875,20.8984375 C55.1510422,21.2994812 55.2447913,21.6901023 55.328125,22.0703125 C55.4114587,22.4505227 55.4739581,22.7916652 55.515625,23.09375 L55.65625,23.09375 C55.7500005,22.3020794 56.130205,20.6041797 56.796875,18 L59.203125,8.84375 L62.078125,8.84375 L57.3125,26 L54.015625,26 Z M72.453125,26.3125 C69.8801955,26.3125 67.8619865,25.533862 66.3984375,23.9765625 C64.9348885,22.419263 64.203125,20.2760553 64.203125,17.546875 C64.203125,14.7968612 64.8854098,12.606779 66.25,10.9765625 C67.6145902,9.34634602 69.4583217,8.53125 71.78125,8.53125 C73.9375108,8.53125 75.6562436,9.22655555 76.9375,10.6171875 C78.2187564,12.0078195 78.859375,13.8906131 78.859375,16.265625 L78.859375,17.96875 L67.109375,17.96875 C67.1614586,19.9166764 67.6562453,21.3958283 68.59375,22.40625 C69.5312547,23.4166717 70.8593664,23.921875 72.578125,23.921875 C73.4947963,23.921875 74.3645792,23.8411466 75.1875,23.6796875 C76.0104208,23.5182284 76.9739528,23.2031273 78.078125,22.734375 L78.078125,25.203125 C77.1302036,25.609377 76.2395875,25.8958325 75.40625,26.0625 C74.5729125,26.2291675 73.5885473,26.3125 72.453125,26.3125 Z M71.75,10.828125 C70.4062433,10.828125 69.3437539,11.2604123 68.5625,12.125 C67.7812461,12.9895877 67.3177091,14.1927006 67.171875,15.734375 L75.90625,15.734375 C75.8854166,14.1302003 75.5156286,12.9114625 74.796875,12.078125 C74.0781214,11.2447875 73.0625066,10.828125 71.75,10.828125 Z M91.203125,8.53125 C91.9635455,8.53125 92.6354137,8.59374938 93.21875,8.71875 L92.875,11.3125 C92.2395802,11.1666659 91.6197947,11.09375 91.015625,11.09375 C90.1093705,11.09375 89.268233,11.3437475 88.4921875,11.84375 C87.716142,12.3437525 87.1093772,13.0338498 86.671875,13.9140625 C86.2343728,14.7942752 86.015625,15.770828 86.015625,16.84375 L86.015625,26 L83.203125,26 L83.203125,8.84375 L85.515625,8.84375 L85.828125,11.984375 L85.953125,11.984375 C86.6093783,10.8489527 87.3854122,9.98958625 88.28125,9.40625 C89.1770878,8.82291375 90.1510364,8.53125 91.203125,8.53125 Z M103.40625,26.3125 C100.83332,26.3125 98.8151115,25.533862 97.3515625,23.9765625 C95.8880135,22.419263 95.15625,20.2760553 95.15625,17.546875 C95.15625,14.7968612 95.8385348,12.606779 97.203125,10.9765625 C98.5677152,9.34634602 100.411447,8.53125 102.734375,8.53125 C104.890636,8.53125 106.609369,9.22655555 107.890625,10.6171875 C109.171881,12.0078195 109.8125,13.8906131 109.8125,16.265625 L109.8125,17.96875 L98.0625,17.96875 C98.1145836,19.9166764 98.6093703,21.3958283 99.546875,22.40625 C100.48438,23.4166717 101.812491,23.921875 103.53125,23.921875 C104.447921,23.921875 105.317704,23.8411466 106.140625,23.6796875 C106.963546,23.5182284 107.927078,23.2031273 109.03125,22.734375 L109.03125,25.203125 C108.083329,25.609377 107.192712,25.8958325 106.359375,26.0625 C105.526038,26.2291675 104.541672,26.3125 103.40625,26.3125 Z M102.703125,10.828125 C101.359368,10.828125 100.296879,11.2604123 99.515625,12.125 C98.7343711,12.9895877 98.2708341,14.1927006 98.125,15.734375 L106.859375,15.734375 C106.838542,14.1302003 106.468754,12.9114625 105.75,12.078125 C105.031246,11.2447875 104.015632,10.828125 102.703125,10.828125 Z M120.234375,26.3125 C118.005197,26.3125 116.276048,25.5416744 115.046875,24 C113.817702,22.4583256 113.203125,20.2760558 113.203125,17.453125 C113.203125,14.6510277 113.820306,12.4635495 115.054688,10.890625 C116.289069,9.31770047 118.02603,8.53125 120.265625,8.53125 C122.56772,8.53125 124.338535,9.37499156 125.578125,11.0625 L125.78125,11.0625 C125.75,10.8541656 125.708334,10.434899 125.65625,9.8046875 C125.604166,9.17447602 125.578125,8.75000109 125.578125,8.53125 L125.578125,1.6875 L128.390625,1.6875 L128.390625,26 L126.125,26 L125.703125,23.703125 L125.578125,23.703125 C124.380202,25.442717 122.59897,26.3125 120.234375,26.3125 Z M120.6875,23.984375 C122.395842,23.984375 123.643225,23.5182338 124.429688,22.5859375 C125.21615,21.6536412 125.609375,20.1250106 125.609375,18 L125.609375,17.484375 C125.609375,15.0989464 125.210941,13.3984426 124.414062,12.3828125 C123.617184,11.3671824 122.364592,10.859375 120.65625,10.859375 C119.208326,10.859375 118.088546,11.4348901 117.296875,12.5859375 C116.505204,13.7369849 116.109375,15.3801977 116.109375,17.515625 C116.109375,19.6406356 116.5026,21.2499945 117.289062,22.34375 C118.075525,23.4375055 119.208326,23.984375 120.6875,23.984375 Z M150.28125,8.5625 C152.541678,8.5625 154.286452,9.34113805 155.515625,10.8984375 C156.744798,12.455737 157.359375,14.6301944 157.359375,17.421875 C157.359375,20.2552225 156.734381,22.4453048 155.484375,23.9921875 C154.234369,25.5390702 152.500011,26.3125 150.28125,26.3125 C149.124994,26.3125 148.093755,26.1041687 147.1875,25.6875 C146.281245,25.2708313 145.54167,24.6510458 144.96875,23.828125 L144.75,23.828125 C144.427082,25.0781312 144.234375,25.8020823 144.171875,26 L142.15625,26 L142.15625,1.6875 L144.96875,1.6875 L144.96875,7.59375 C144.96875,8.77083922 144.916667,9.94791078 144.8125,11.125 L144.96875,11.125 C146.125006,9.41665812 147.895821,8.5625 150.28125,8.5625 Z M149.8125,10.890625 C148.083325,10.890625 146.843754,11.3802034 146.09375,12.359375 C145.343746,13.3385466 144.96875,14.99478 144.96875,17.328125 L144.96875,17.453125 C144.96875,19.7968867 145.351559,21.4713491 146.117188,22.4765625 C146.882816,23.4817759 148.135408,23.984375 149.875,23.984375 C151.416674,23.984375 152.5651,23.4192765 153.320312,22.2890625 C154.075525,21.1588485 154.453125,19.5260523 154.453125,17.390625 C154.453125,15.2239475 154.07292,13.5989637 153.3125,12.515625 C152.55208,11.4322862 151.385425,10.890625 149.8125,10.890625 Z M158.84375,8.84375 L161.859375,8.84375 L165.5625,18.609375 C166.343754,20.7343856 166.822916,22.2916617 167,23.28125 L167.125,23.28125 C167.21875,22.8958314 167.43229,22.1744845 167.765625,21.1171875 C168.09896,20.0598905 168.380207,19.2135448 168.609375,18.578125 L172.09375,8.84375 L175.125,8.84375 L167.734375,28.375 C167.015621,30.2708428 166.161463,31.6302042 165.171875,32.453125 C164.182287,33.2760458 162.958341,33.6875 161.5,33.6875 C160.718746,33.6875 159.942712,33.5989592 159.171875,33.421875 L159.171875,31.1875 C159.692711,31.3125006 160.317705,31.375 161.046875,31.375 C161.942713,31.375 162.703122,31.1276066 163.328125,30.6328125 C163.953128,30.1380184 164.46354,29.3750052 164.859375,28.34375 L165.75,26.0625 L158.84375,8.84375 Z" id="Powered-by" fill="#888888"></path>
                    <g id="elife_logo_rgb" transform="translate(2.000000, 50.000000)">
                        <circle id="Oval" fill="#FFFFFF" cx="37.0689655" cy="37.0689655" r="35.5862069"></circle>
                        <path d="M45.8491742,53.3781938 C45.4394059,50.5372818 44.7203573,47.741478 43.7918466,45.0021707 C43.146936,43.1107603 42.4470918,41.2293986 41.7028095,39.3545129 C41.3682956,39.7008621 41.0411509,40.0530172 40.7274045,40.4172309 C39.4750987,41.8229487 38.4123806,43.3704664 37.5238419,45.0186955 C38.5063928,47.800431 39.1966349,50.6768487 39.5860823,53.5749273 C40.3558216,59.1138347 40.1682436,64.6824419 39.5047985,70.1340362 C41.0467335,70.0201496 42.5629882,69.7992989 44.0470866,69.4777368 C44.9930152,67.0528458 45.6321199,64.5209908 45.9572549,61.9627856 C46.3147695,59.1071354 46.2564862,56.2177658 45.8491742,53.3781938" id="Fill-1" fill="#0A9DD9"></path>
                        <path d="M52.4016723,64.0415508 C52.8250623,62.9136269 53.2053541,61.7720815 53.5215569,60.6171375 C54.1597684,58.3101527 54.5465362,55.9489042 54.5909743,53.5936851 C54.638762,51.2364562 54.3285884,48.901558 53.7756803,46.598146 C53.2301413,44.2893747 52.4074782,42.0161093 51.7554217,39.6035001 C51.1493664,37.4144214 50.6612173,35.0797465 50.6400031,32.6876817 C49.2621988,33.4833247 47.9167741,34.3149201 46.6385647,35.2264593 C45.622741,35.9254103 44.6446561,36.6705858 43.715699,37.4637724 C44.5845866,39.6955026 45.4275706,41.9538066 46.0923557,44.2840154 C46.9214946,47.1673557 47.5753376,50.1315331 47.8377233,53.1497507 C48.1099345,56.1635022 48.0087764,59.2205754 47.475296,62.1945783 C47.0476631,64.5913326 46.3368768,66.9222112 45.410376,69.1521552 C47.4080806,68.6287236 49.3381232,67.9232966 51.1812994,67.0492729 C51.3418571,66.5955131 51.549756,66.1620741 51.7295181,65.7223826 C51.9651069,65.1659016 52.1870741,64.6051776 52.4016723,64.0415508" id="Fill-2" fill="#0961AB"></path>
                        <path d="M68.0376299,32.7383725 C67.6649305,34.0712921 67.1995585,35.3497247 66.7712557,36.6087297 C66.3507686,37.8710844 65.9316212,39.1001662 65.5908548,40.3341607 C64.918254,42.7992469 64.5495741,45.2926931 64.5582831,47.8750156 C64.558953,49.1632738 64.6406834,50.4693966 64.8298245,51.7703832 C64.9240601,52.4213233 65.0390631,53.0711467 65.1721542,53.7196303 C65.2139125,53.9237329 65.2599138,54.1247091 65.3047985,54.3259088 C67.503926,50.7069953 69.0440745,46.6088647 69.7291805,42.1717543 C70.4585013,37.4474709 70.1617262,32.7247507 68.9174595,28.2530277 C68.7794558,29.7782145 68.4540975,31.2931295 68.0376299,32.7383725" id="Fill-3" fill="#732060"></path>
                        <path d="M23.8078781,14.2644059 C23.983844,17.0615496 24.5012464,19.8138087 25.4156887,22.4128792 C26.1655535,24.6680567 27.2550685,26.7617834 28.4886165,28.8146447 C28.7228655,28.4350228 28.951532,28.0520513 29.1942667,27.6775655 C30.0615912,26.3642969 30.9930047,25.0939032 31.9664,23.8572289 C32.9442615,22.6243508 33.9580754,21.417823 35.0446874,20.2776174 C35.0810863,20.2396552 35.1197186,20.2043726 35.1563409,20.1664105 C35.1391463,20.0549803 35.1188254,19.9451132 35.1029705,19.8334597 C34.6724345,16.8134555 34.7436695,13.655001 35.5618664,10.6801049 C36.2114665,8.28134088 37.3378272,6.03688201 38.7544869,4.0519059 C33.5380349,3.76808268 28.5084908,4.72718633 23.9657561,6.67598671 C23.8757633,7.80346385 23.7821977,8.92200872 23.7531678,10.0465829 C23.7071666,11.4572133 23.7172154,12.865834 23.8078781,14.2644059" id="Fill-4" fill="#0A9DD9"></path>
                        <path d="M37.1844152,11.0717854 C36.6837608,13.4446458 36.7031887,15.8867314 37.0680723,18.2904082 C37.5262982,17.8607654 37.9865341,17.4326859 38.4603915,17.0191212 C42.8351994,13.2021344 47.9190071,10.1131284 53.4507686,8.3711103 C49.9758881,6.38501766 46.1350072,5.02530121 42.0607707,4.39624533 C41.5020564,4.31004882 40.9341867,4.23658081 40.3736862,4.17896759 C40.2932956,4.17070523 40.2137982,4.16780224 40.134301,4.16043311 C39.5324886,5.09787599 38.9773473,6.04983382 38.5209078,7.05047258 C37.9215517,8.342527 37.471588,9.69286456 37.1844152,11.0717854" id="Fill-5" fill="#0961AB"></path>
                        <path d="M28.2047932,62.159519 C27.4392969,59.6506648 26.2082052,57.3099605 24.7989146,55.0585791 C24.0345346,53.8243612 23.2071821,52.6162703 22.3612952,51.4075093 C21.9193705,53.8607603 21.6509555,56.3490704 21.5819537,58.8474294 C21.5395253,60.3616742 21.5694484,61.8792688 21.6744028,63.3935138 C21.7271033,64.1505245 21.7976682,64.9066421 21.8881076,65.6607499 C21.9271863,65.980079 21.9693914,66.3078936 22.0015476,66.6381648 C24.3116586,67.8091867 26.767366,68.7100072 29.332717,69.3171791 C29.3128427,68.1955079 29.2393747,67.091478 29.0848462,65.9957104 C28.9017346,64.6878012 28.5799491,63.4120483 28.2047932,62.159519" id="Fill-6" fill="#CE0D4E"></path>
                        <path d="M47.0235459,13.0248286 C44.4870014,14.6592127 42.1518799,16.5863523 39.9820056,18.673603 C39.1729643,19.4538377 38.3998754,20.2702482 37.644651,21.1016203 C37.3874013,21.3845503 37.1247923,21.6623443 36.8740185,21.9499637 C36.4990861,22.3773733 36.1321926,22.8114822 35.765969,23.2460375 C35.1619235,23.9628532 34.5681502,24.6872611 34.0022902,25.4342232 C33.0880712,26.6307022 32.2287859,27.8682696 31.4056762,29.1288377 C30.9340517,29.8380609 30.4816317,30.5609057 30.0414936,31.2902264 C31.2640996,33.180297 32.5436488,35.0757271 33.7282926,37.0727617 C34.6563565,38.6477461 35.5268073,40.2790039 36.2894007,41.9629622 C37.0220711,40.8046687 37.8411611,39.7019786 38.7484576,38.678116 C39.3496001,38.0035054 39.9846853,37.3641774 40.6418779,36.751423 C41.3144786,36.1243768 42.0114198,35.526584 42.7313617,34.9613939 C43.5466556,34.3216193 44.38696,33.719137 45.246022,33.1548401 C47.0525758,32.0019059 48.923442,30.9950146 50.8157457,30.0700769 C51.0861706,28.1179269 51.6410884,26.2155744 52.460402,24.4711 C53.5094983,22.133522 54.9009244,20.0203676 56.4035573,18.0374013 C57.1518591,17.0421219 57.9352202,16.079892 58.739572,15.1411093 C59.2212453,14.5864146 59.7067148,14.0328365 60.2066993,13.4957831 C58.5548971,11.8663118 56.7463336,10.427768 54.8098151,9.19221022 C52.0667116,10.1658288 49.4542428,11.4438149 47.0235459,13.0248286 Z" id="Fill-7" fill="#CE0D4E"></path>
                        <path d="M66.1765891,32.0773836 C68.4873701,27.1052296 67.1979954,23.4927919 66.8270825,22.7277419 C66.6560293,22.3753635 66.4854227,22.0234316 66.301641,21.6768591 C65.5482031,20.2543935 64.6871313,18.8763658 63.7186488,17.5539416 C62.8861602,16.4170857 61.9846698,15.3505712 61.0322653,14.34234 C60.6231669,14.8887724 60.214515,15.4329715 59.8190382,15.989006 C59.1160677,16.9753532 58.4369911,17.9744288 57.8059255,18.9985147 C56.5478137,21.0478033 55.4571821,23.1803853 54.6398785,25.3674543 C54.2417221,26.4650083 53.9228397,27.576854 53.6707259,28.6913793 C53.6673764,28.7083507 53.6646967,28.7250987 53.6611237,28.7420699 C53.4871677,29.5553541 53.371048,30.3760075 53.3161144,31.1993405 C53.2964634,31.4909794 53.2841816,31.7832884 53.280162,32.0753739 C53.2026745,34.3450665 53.6012775,36.6339634 54.208896,38.9478708 C54.8243301,41.2579819 55.5306502,43.6388814 56.0091972,46.1151329 C56.4993561,48.5858019 56.7016723,51.1567355 56.4986862,53.6859109 C56.307312,56.2162027 55.7517241,58.691561 54.9520617,61.0548192 C54.5545752,62.2385698 54.094786,63.3957468 53.5936851,64.5303697 C53.3409016,65.0962297 53.0811955,65.6585168 52.8080909,66.2136581 C52.8063045,66.2172309 52.8040715,66.2210273 52.8025083,66.2248234 C57.4631492,63.6925218 61.4817823,60.0646759 64.4709701,55.628682 C64.3686955,55.4422207 64.2891981,55.2466036 64.2130505,55.0492002 C64.0929113,54.7354538 63.9729954,54.4051828 63.860672,54.0840673 C63.6333454,53.4367002 63.4234369,52.7810708 63.2331792,52.1162859 C62.8551206,50.7878323 62.5480733,49.4243197 62.3689811,48.0286509 C62.0049907,45.2422258 62.2437059,42.3113212 63.0735147,39.6162287 C63.8579924,36.8988056 65.0756855,34.4455546 66.1765891,32.0773836" id="Fill-8" fill="#273B81"></path>
                        <path d="M38.2641047,62.312931 C38.1258776,59.4896603 37.8326755,56.686264 37.3418466,53.9324419 C36.9937111,52.0568861 36.5569226,50.2038845 35.9988783,48.3935345 C35.7391723,47.5512204 35.4562422,46.7171687 35.1391463,45.8958454 C35.0047154,45.5401174 34.8528667,45.191535 34.7081637,44.8400499 C33.7988575,42.629757 32.7104591,40.4940487 31.4561435,38.4248857 C30.5479538,36.8943394 29.5674128,35.3821043 28.5949107,33.8397228 C28.0674595,33.0032145 27.5435812,32.1579975 27.0344412,31.2922362 C27.0045181,31.2406523 26.9723619,31.1901849 26.9415455,31.1383776 C25.4777679,28.6208142 24.1957624,25.9091972 23.3813617,23.0531004 C22.5705339,20.1938772 22.230214,17.2377389 22.2098931,14.3211259 C22.1969412,12.8609213 22.2679529,11.4069693 22.3956845,9.96306606 C22.4816577,9.05442978 22.5812526,8.14646345 22.7098775,7.24564292 C21.231585,7.95464271 19.8109057,8.76971333 18.4578885,9.68527212 C17.5206689,12.113736 16.6374896,14.5544817 15.9923557,17.0555203 C15.3135022,19.6534743 14.8452275,22.2974294 14.7114666,24.942501 C14.5763658,27.5851164 14.7690798,30.2234887 15.357717,32.7662859 C15.6491328,34.0389125 16.0488523,35.2820627 16.5171271,36.5010958 C16.9757998,37.7239251 17.5226787,38.917501 18.1367729,40.0842802 C19.1124013,41.9506803 20.2711414,43.7357966 21.4698536,45.5242625 C21.7724345,45.9764593 22.0774719,46.4291026 22.3834025,46.8828625 C22.6245741,47.2345711 22.8670857,47.5889593 23.1098204,47.9424543 C24.4096905,49.8392241 25.7120171,51.7708298 26.8828158,53.8201185 C28.26196,56.2517086 29.4088647,58.8813721 30.0792325,61.645913 C30.4275913,63.0239406 30.5926153,64.4437266 30.6589374,65.8525706 C30.716104,67.1008569 30.6622871,68.3551724 30.5079819,69.5788949 C30.9876454,69.6742469 31.4688721,69.7631232 31.9547881,69.8383776 C32.4049751,69.9080495 32.8600748,69.9618664 33.3127182,70.0130038 C33.4228085,70.0255089 33.5333454,70.0440434 33.6429892,70.0558788 C33.9160937,70.0837921 34.187635,70.0985303 34.4598462,70.1199677 C35.769542,70.2222423 37.0689655,70.2532821 38.3527577,70.2041546 C38.374865,68.9866846 38.3920597,67.7723411 38.3920597,66.5609004 C38.3837973,65.1408911 38.3469516,63.7242314 38.2641047,62.312931 Z" id="Fill-9" fill="#629F43"></path>
                        <path d="M20.7083945,65.931294 L20.7091358,65.931294 C20.6980152,65.8697595 20.7024634,65.9001561 20.7083945,65.931294" id="Fill-10" fill="#165B31"></path>
                        <path d="M20.7048751,65.9063877 L20.7041338,65.9063877 C20.7093234,65.938267 20.7152544,65.9701463 20.7048751,65.9063877" id="Fill-11" fill="#165B31"></path>
                        <g id="Group-15">
                            <g id="Fill-12-Clipped">
                                <mask id="mask-2" fill="white">
                                    <use xlink:href="#path-1"></use>
                                </mask>
                                <g id="path-1"></g>
                                <path d="M13.7106045,57.2161716 C13.420082,55.5621365 12.9455546,53.9505298 12.3466452,52.3882738 C11.1488263,49.2586258 9.48496573,46.3192355 7.84231927,43.2769007 C7.02613212,41.7532768 6.23428541,40.1865548 5.58088907,38.5376557 C4.97036767,36.9997404 4.46949003,35.4030951 4.07691628,33.7856824 C3.0121884,44.3163949 7.00179164,54.176963 14.0866535,60.9773318 C14.073925,60.5597476 14.0547206,60.1412703 14.023011,59.7196666 C13.9595918,58.878469 13.8553074,58.0428541 13.7106045,57.2161716" id="Fill-12" fill="#6E3F19" mask="url(#mask-2)"></path>
                            </g>
                            <g id="Fill-14-Clipped">
                                <mask id="mask-4" fill="white">
                                    <use xlink:href="#path-3"></use>
                                </mask>
                                <g id="path-1"></g>
                                <path d="M40.812931,0.29610511 C20.5098566,-1.79561176 2.28867367,13.0210324 0.196956792,33.3252233 C-1.89476008,53.6289676 12.922554,71.8492574 33.2260749,73.9409743 C53.5302658,76.032691 71.7498857,61.2162703 73.8413793,40.9123027 C75.9333195,20.6081118 61.1175685,2.38826859 40.812931,0.29610511 Z M72.0549231,40.7280744 C70.0645876,60.0470346 52.728817,74.144407 33.4100799,72.1538482 C14.0911196,70.1635127 -0.00625259659,52.8279654 1.98385958,33.5092283 C3.97419505,14.190268 21.3104124,0.0926724138 40.628926,2.08278458 C59.9481097,4.07334337 74.0452586,21.4093373 72.0549231,40.7280744 Z" id="Fill-14" fill="#A0A1A5" fill-rule="nonzero" mask="url(#mask-4)"></path>
                            </g>
                        </g>
                        <path d="M95.5546375,40.8781367 C95.5195783,38.2801828 93.8121728,36.6473619 91.0228448,36.6473619 C88.3927347,36.6473619 86.7612536,38.3174751 86.4253999,40.8781367 L95.5546375,40.8781367 Z M91.2115392,48.4495845 C93.4396967,48.4495845 94.8867262,47.4094205 95.9999117,46.0363056 L99.1925323,48.4495845 C97.114437,51.0095762 94.4827638,52.0122247 91.660833,52.0122247 C86.2793571,52.0122247 81.9728811,48.2633465 81.9728811,42.66035 C81.9728811,37.0555672 86.2793571,33.3080286 91.660833,33.3080286 C96.6332104,33.3080286 100.00805,36.7969776 100.00805,42.9939707 L100.00805,44.218363 L86.4253999,44.218363 C86.7232914,46.8538326 88.7254622,48.4495845 91.2115392,48.4495845 Z" id="Fill-16" fill="#A0A1A5" fill-rule="nonzero"></path>
                        <polyline id="Fill-17" fill="#6B6D70" points="103.793103 25.2068966 108.241379 25.2068966 108.241379 47.4482759 120.103448 47.4482759 120.103448 51.8965517 103.793103 51.8965517 103.793103 25.2068966"></polyline>
                        <polygon id="Fill-18" fill="#6B6D70" points="123.068966 51.8965517 127.517241 51.8965517 127.517241 25.2068966 123.068966 25.2068966"></polygon>
                        <polyline id="Fill-19" fill="#6B6D70" points="133.448276 25.2068966 149.758621 25.2068966 149.758621 29.6551724 137.896552 29.6551724 137.896552 37.0689655 149.758621 37.0689655 149.758621 41.5172414 137.896552 41.5172414 137.896552 51.8965517 133.448276 51.8965517 133.448276 25.2068966"></polyline>
                        <polyline id="Fill-20" fill="#6B6D70" points="154.206897 25.2068966 172 25.2068966 172 29.6551724 158.655172 29.6551724 158.655172 35.5862069 170.517241 35.5862069 170.517241 40.0344828 158.655172 40.0344828 158.655172 47.4482759 172 47.4482759 172 51.8965517 154.206897 51.8965517 154.206897 25.2068966"></polyline>
                        <path d="M20.7043571,65.9063877 C20.5728293,65.1375416 20.4462141,64.2932177 20.353765,63.5178957 C20.1679736,61.9674751 20.0592232,60.406559 20.0243872,58.8429633 C19.9553853,55.7144319 20.1833818,52.5765215 20.6791233,49.47836 C20.6992211,49.3528615 20.7224449,49.2278095 20.7432125,49.1018643 C20.571936,48.8577898 20.4002129,48.6152784 20.2298297,48.369194 C18.6468062,46.1300946 17.1303281,43.7817978 15.8483226,41.2673608 C15.208548,40.0108121 14.6328625,38.7118352 14.1505193,37.3731097 C13.6766618,36.0317044 13.3104383,34.6485407 13.0464894,33.2492989 C12.5165818,30.4492522 12.4323951,27.5824366 12.7311799,24.7881959 C13.2409898,19.9625311 14.7183891,15.3818343 16.6106927,11.0335999 C9.02115704,16.4972528 3.38220815,28.4256439 5.3084545,33.0329143 C5.96073432,34.5929373 6.75124117,36.0890943 7.6078469,37.5551048 C8.4662391,39.0211155 9.33378687,40.4947186 10.1691784,42.0138763 C11.8321458,45.0452691 13.4370534,48.2550841 14.3805256,51.7252753 C14.855053,53.4538949 15.1725955,55.2282926 15.3237745,57.0087194 C15.3974657,57.8992678 15.4273889,58.7918259 15.4137671,59.6808112 C15.4072913,60.1234057 15.3876402,60.5704664 15.3599501,61.0177503 L15.3072497,61.6796324 C15.2931813,61.7991016 15.2744235,61.9181242 15.2511997,62.0371468 C16.9248857,63.4975748 18.7479643,64.7987848 20.7041338,65.9063877 C20.7023473,65.8970088 20.7010075,65.8878532 20.7043571,65.9063877" id="Fill-21" fill="#046535"></path>
                    </g>
                </g>
            </g>
        </g>
    </g>
</svg>